999
dxflib 3.12.2.0
  0
SECTION
  2
HEADER
  9
$ACADVER
  1
AC1015
  9
$HANDSEED
  5
FFFF
  9
$DIMADEC
 70
0
  9
$DIMASZ
 40
0.25
  9
$DIMAUNIT
 70
0
  9
$DIMAZIN
 70
2
  9
$DIMDEC
 70
4
  9
$DIMEXE
 40
0.125
  9
$DIMEXO
 40
0.0625
  9
$DIMGAP
 40
0.0625
  9
$DIMLUNIT
 70
2
  9
$DIMSCALE
 40
1.0
  9
$DIMTSZ
 40
0.0
  9
$DIMTXT
 40
0.25
  9
$DIMZIN
 70
8
  9
$DWGCODEPAGE
  3
ANSI_1252
  9
$INSUNITS
 70
1
  9
$LTSCALE
 40
1.0
  9
$MEASUREMENT
 70
1
  9
$PDMODE
 70
0
  9
$PDSIZE
 40
0
  0
ENDSEC
  0
SECTION
  2
TABLES
  0
TABLE
  2
VPORT
  5
8
100
AcDbSymbolTable
 70
1
  0
VPORT
  5
30
100
AcDbSymbolTableRecord
100
AcDbViewportTableRecord
  2
*Active
 70
0
 10
0.0
 20
0.0
 11
1.0
 21
1.0
 12
286.3055555555554861
 22
148.5
 13
0.0
 23
0.0
 14
10.0
 24
10.0
 15
10.0
 25
10.0
 16
0.0
 26
0.0
 36
1.0
 17
0.0
 27
0.0
 37
0.0
 40
297.0
 41
1.92798353909465
 42
50.0
 43
0.0
 44
0.0
 50
0.0
 51
0.0
 71
0
 72
100
 73
1
 74
3
 75
1
 76
1
 77
0
 78
0
281
0
 65
1
110
0.0
120
0.0
130
0.0
111
1.0
121
0.0
131
0.0
112
0.0
122
1.0
132
0.0
 79
0
146
0.0
  0
ENDTAB
  0
TABLE
  2
LTYPE
  5
5
100
AcDbSymbolTable
 70
41
  0
LTYPE
  5
16
100
AcDbSymbolTableRecord
100
AcDbLinetypeTableRecord
  2
Continuous
 70
0
  3
Solid line
 72
65
 73
0
 40
0.0
  0
LTYPE
  5
31
100
AcDbSymbolTableRecord
100
AcDbLinetypeTableRecord
  2
ACAD_ISO15W100
 70
0
  3
ISO double-dash triple-dot __ __ . . . __ __ . .
 72
65
 73
10
 40
39.0
 49
12.0
 74
0
 49
-3.0
 74
0
 49
12.0
 74
0
 49
-3.0
 74
0
 49
0.0
 74
0
 49
-3.0
 74
0
 49
0.0
 74
0
 49
-3.0
 74
0
 49
0.0
 74
0
 49
-3.0
 74
0
  0
LTYPE
  5
32
100
AcDbSymbolTableRecord
100
AcDbLinetypeTableRecord
  2
HIDDENX2
 70
0
  3
Hidden (2x) ____ ____ ____ ____ ____ ____ ____ 
 72
65
 73
2
 40
19.0499999999999972
 49
12.6999999999999993
 74
0
 49
-6.3499999999999996
 74
0
  0
LTYPE
  5
33
100
AcDbSymbolTableRecord
100
AcDbLinetypeTableRecord
  2
DASHDOTX2
 70
0
  3
Dash dot (2x) ____  .  ____  .  ____  .  ___
 72
65
 73
4
 40
50.7999999999999972
 49
25.3999999999999986
 74
0
 49
-12.6999999999999993
 74
0
 49
0.0
 74
0
 49
-12.6999999999999993
 74
0
  0
LTYPE
  5
34
100
AcDbSymbolTableRecord
100
AcDbLinetypeTableRecord
  2
ACAD_ISO07W100
 70
0
  3
ISO dot . . . . . . . . . . . . . . . . . . . . 
 72
65
 73
2
 40
3.0
 49
0.0
 74
0
 49
-3.0
 74
0
  0
LTYPE
  5
35
100
AcDbSymbolTableRecord
100
AcDbLinetypeTableRecord
  2
DASHEDX2
 70
0
  3
Dashed (2x) ____  ____  ____  ____  ____  ___
 72
65
 73
2
 40
38.0999999999999943
 49
25.3999999999999986
 74
0
 49
-12.6999999999999993
 74
0
  0
LTYPE
  5
14
100
AcDbSymbolTableRecord
100
AcDbLinetypeTableRecord
  2
BYBLOCK
 70
0
  3

 72
65
 73
0
 40
0.0
  0
LTYPE
  5
36
100
AcDbSymbolTableRecord
100
AcDbLinetypeTableRecord
  2
ACAD_ISO14W100
 70
0
  3
ISO dash triple-dot __ . . . __ . . . __ . . . _
 72
65
 73
8
 40
24.0
 49
12.0
 74
0
 49
-3.0
 74
0
 49
0.0
 74
0
 49
-3.0
 74
0
 49
0.0
 74
0
 49
-3.0
 74
0
 49
0.0
 74
0
 49
-3.0
 74
0
  0
LTYPE
  5
37
100
AcDbSymbolTableRecord
100
AcDbLinetypeTableRecord
  2
ACAD_ISO06W100
 70
0
  3
ISO long-dash triple-dot ____ ... ____ ... ____
 72
65
 73
8
 40
36.0
 49
24.0
 74
0
 49
-3.0
 74
0
 49
0.0
 74
0
 49
-3.0
 74
0
 49
0.0
 74
0
 49
-3.0
 74
0
 49
0.0
 74
0
 49
-3.0
 74
0
  0
LTYPE
  5
38
100
AcDbSymbolTableRecord
100
AcDbLinetypeTableRecord
  2
CENTERX2
 70
0
  3
Center (2x) ________  __  ________  __  _____
 72
65
 73
4
 40
101.6000000000000085
 49
63.5
 74
0
 49
-12.6999999999999993
 74
0
 49
12.6999999999999993
 74
0
 49
-12.6999999999999993
 74
0
  0
LTYPE
  5
39
100
AcDbSymbolTableRecord
100
AcDbLinetypeTableRecord
  2
PHANTOMX2
 70
0
  3
Phantom (2x) ____________    ____    ____   _
 72
65
 73
6
 40
127.0000000000000142
 49
63.5
 74
0
 49
-12.6999999999999993
 74
0
 49
12.6999999999999993
 74
0
 49
-12.6999999999999993
 74
0
 49
12.6999999999999993
 74
0
 49
-12.6999999999999993
 74
0
  0
LTYPE
  5
3A
100
AcDbSymbolTableRecord
100
AcDbLinetypeTableRecord
  2
ACAD_ISO13W100
 70
0
  3
ISO double-dash double-dot __ __ . . __ __ . . _
 72
65
 73
8
 40
36.0
 49
12.0
 74
0
 49
-3.0
 74
0
 49
12.0
 74
0
 49
-3.0
 74
0
 49
0.0
 74
0
 49
-3.0
 74
0
 49
0.0
 74
0
 49
-3.0
 74
0
  0
LTYPE
  5
3B
100
AcDbSymbolTableRecord
100
AcDbLinetypeTableRecord
  2
ACAD_ISO05W100
 70
0
  3
ISO long-dash double-dot ____ .. ____ .. ____ . 
 72
65
 73
6
 40
33.0
 49
24.0
 74
0
 49
-3.0
 74
0
 49
0.0
 74
0
 49
-3.0
 74
0
 49
0.0
 74
0
 49
-3.0
 74
0
  0
LTYPE
  5
3C
100
AcDbSymbolTableRecord
100
AcDbLinetypeTableRecord
  2
ACAD_ISO12W100
 70
0
  3
ISO dash double-dot __ . . __ . . __ . . __ . . 
 72
65
 73
6
 40
21.0
 49
12.0
 74
0
 49
-3.0
 74
0
 49
0.0
 74
0
 49
-3.0
 74
0
 49
0.0
 74
0
 49
-3.0
 74
0
  0
LTYPE
  5
3D
100
AcDbSymbolTableRecord
100
AcDbLinetypeTableRecord
  2
DASHED2
 70
0
  3
Dashed (.5x) _ _ _ _ _ _ _ _ _ _ _ _ _ _ _ _ _ 
 72
65
 73
2
 40
9.5249999999999986
 49
6.3499999999999996
 74
0
 49
-3.1749999999999998
 74
0
  0
LTYPE
  5
3E
100
AcDbSymbolTableRecord
100
AcDbLinetypeTableRecord
  2
ACAD_ISO04W100
 70
0
  3
ISO long-dash dot ____ . ____ . ____ . ____ . _
 72
65
 73
4
 40
30.0
 49
24.0
 74
0
 49
-3.0
 74
0
 49
0.0
 74
0
 49
-3.0
 74
0
  0
LTYPE
  5
3F
100
AcDbSymbolTableRecord
100
AcDbLinetypeTableRecord
  2
CENTER
 70
0
  3
Center ____ _ ____ _ ____ _ ____ _ ____ _ ____
 72
65
 73
4
 40
50.8000000000000043
 49
31.75
 74
0
 49
-6.3499999999999996
 74
0
 49
6.3499999999999996
 74
0
 49
-6.3499999999999996
 74
0
  0
LTYPE
  5
40
100
AcDbSymbolTableRecord
100
AcDbLinetypeTableRecord
  2
DASHDOT2
 70
0
  3
Dash dot (.5x) _._._._._._._._._._._._._._._.
 72
65
 73
4
 40
12.6999999999999993
 49
6.3499999999999996
 74
0
 49
-3.1749999999999998
 74
0
 49
0.0
 74
0
 49
-3.1749999999999998
 74
0
  0
LTYPE
  5
41
100
AcDbSymbolTableRecord
100
AcDbLinetypeTableRecord
  2
DIVIDE
 70
0
  3
Divide ____ . . ____ . . ____ . . ____ . . ____
 72
65
 73
6
 40
31.75
 49
12.6999999999999993
 74
0
 49
-6.3499999999999996
 74
0
 49
0.0
 74
0
 49
-6.3499999999999996
 74
0
 49
0.0
 74
0
 49
-6.3499999999999996
 74
0
  0
LTYPE
  5
42
100
AcDbSymbolTableRecord
100
AcDbLinetypeTableRecord
  2
ACAD_ISO11W100
 70
0
  3
ISO double-dash dot __ __ . __ __ . __ __ . __ _
 72
65
 73
6
 40
33.0
 49
12.0
 74
0
 49
-3.0
 74
0
 49
12.0
 74
0
 49
-3.0
 74
0
 49
0.0
 74
0
 49
-3.0
 74
0
  0
LTYPE
  5
43
100
AcDbSymbolTableRecord
100
AcDbLinetypeTableRecord
  2
DASHED
 70
0
  3
Dashed __ __ __ __ __ __ __ __ __ __ __ __ __ _
 72
65
 73
2
 40
19.0499999999999972
 49
12.6999999999999993
 74
0
 49
-6.3499999999999996
 74
0
  0
LTYPE
  5
15
100
AcDbSymbolTableRecord
100
AcDbLinetypeTableRecord
  2
BYLAYER
 70
0
  3

 72
65
 73
0
 40
0.0
  0
LTYPE
  5
44
100
AcDbSymbolTableRecord
100
AcDbLinetypeTableRecord
  2
ACAD_ISO03W100
 70
0
  3
ISO dash space __    __    __    __    __    __
 72
65
 73
2
 40
30.0
 49
12.0
 74
0
 49
-18.0
 74
0
  0
LTYPE
  5
45
100
AcDbSymbolTableRecord
100
AcDbLinetypeTableRecord
  2
CENTER2
 70
0
  3
Center (.5x) ___ _ ___ _ ___ _ ___ _ ___ _ ___
 72
65
 73
4
 40
28.5750000000000028
 49
19.0500000000000007
 74
0
 49
-3.1749999999999998
 74
0
 49
3.1749999999999998
 74
0
 49
-3.1749999999999998
 74
0
  0
LTYPE
  5
46
100
AcDbSymbolTableRecord
100
AcDbLinetypeTableRecord
  2
ACAD_ISO10W100
 70
0
  3
ISO dash dot __ . __ . __ . __ . __ . __ . __ . 
 72
65
 73
4
 40
18.0
 49
12.0
 74
0
 49
-3.0
 74
0
 49
0.0
 74
0
 49
-3.0
 74
0
  0
LTYPE
  5
47
100
AcDbSymbolTableRecord
100
AcDbLinetypeTableRecord
  2
DOTX2
 70
0
  3
Dot (2x) .  .  .  .  .  .  .  .  .  .  .  .  .  .
 72
65
 73
2
 40
12.6999999999999993
 49
0.0
 74
0
 49
-12.6999999999999993
 74
0
  0
LTYPE
  5
48
100
AcDbSymbolTableRecord
100
AcDbLinetypeTableRecord
  2
ACAD_ISO02W100
 70
0
  3
ISO dash __ __ __ __ __ __ __ __ __ __ __ __ __
 72
65
 73
2
 40
15.0
 49
12.0
 74
0
 49
-3.0
 74
0
  0
LTYPE
  5
49
100
AcDbSymbolTableRecord
100
AcDbLinetypeTableRecord
  2
DASHDOT
 70
0
  3
Dash dot __ . __ . __ . __ . __ . __ . __ . __
 72
65
 73
4
 40
25.3999999999999986
 49
12.6999999999999993
 74
0
 49
-6.3499999999999996
 74
0
 49
0.0
 74
0
 49
-6.3499999999999996
 74
0
  0
LTYPE
  5
4A
100
AcDbSymbolTableRecord
100
AcDbLinetypeTableRecord
  2
BORDER
 70
0
  3
Border __ __ . __ __ . __ __ . __ __ . __ __ .
 72
65
 73
6
 40
44.4499999999999957
 49
12.6999999999999993
 74
0
 49
-6.3499999999999996
 74
0
 49
12.6999999999999993
 74
0
 49
-6.3499999999999996
 74
0
 49
0.0
 74
0
 49
-6.3499999999999996
 74
0
  0
LTYPE
  5
4B
100
AcDbSymbolTableRecord
100
AcDbLinetypeTableRecord
  2
DOT
 70
0
  3
Dot . . . . . . . . . . . . . . . . . . . . . . . .
 72
65
 73
2
 40
6.3499999999999996
 49
0.0
 74
0
 49
-6.3499999999999996
 74
0
  0
LTYPE
  5
4C
100
AcDbSymbolTableRecord
100
AcDbLinetypeTableRecord
  2
PHANTOM
 70
0
  3
Phantom ______  __  __  ______  __  __  ______ 
 72
65
 73
6
 40
63.5000000000000071
 49
31.75
 74
0
 49
-6.3499999999999996
 74
0
 49
6.3499999999999996
 74
0
 49
-6.3499999999999996
 74
0
 49
6.3499999999999996
 74
0
 49
-6.3499999999999996
 74
0
  0
LTYPE
  5
4D
100
AcDbSymbolTableRecord
100
AcDbLinetypeTableRecord
  2
DOT2
 70
0
  3
Dot (.5x) ........................................
 72
65
 73
2
 40
3.1749999999999998
 49
0.0
 74
0
 49
-3.1749999999999998
 74
0
  0
LTYPE
  5
4E
100
AcDbSymbolTableRecord
100
AcDbLinetypeTableRecord
  2
DIVIDEX2
 70
0
  3
Divide (2x) ________  .  .  ________  .  .  _
 72
65
 73
6
 40
63.5
 49
25.3999999999999986
 74
0
 49
-12.6999999999999993
 74
0
 49
0.0
 74
0
 49
-12.6999999999999993
 74
0
 49
0.0
 74
0
 49
-12.6999999999999993
 74
0
  0
LTYPE
  5
4F
100
AcDbSymbolTableRecord
100
AcDbLinetypeTableRecord
  2
HIDDEN
 70
0
  3
Hidden __ __ __ __ __ __ __ __ __ __ __ __ __ __
 72
65
 73
2
 40
9.5249999999999986
 49
6.3499999999999996
 74
0
 49
-3.1749999999999998
 74
0
  0
LTYPE
  5
50
100
AcDbSymbolTableRecord
100
AcDbLinetypeTableRecord
  2
BORDER2
 70
0
  3
Border (.5x) __.__.__.__.__.__.__.__.__.__.__.
 72
65
 73
6
 40
22.2249999999999979
 49
6.3499999999999996
 74
0
 49
-3.1749999999999998
 74
0
 49
6.3499999999999996
 74
0
 49
-3.1749999999999998
 74
0
 49
0.0
 74
0
 49
-3.1749999999999998
 74
0
  0
LTYPE
  5
51
100
AcDbSymbolTableRecord
100
AcDbLinetypeTableRecord
  2
BORDERX2
 70
0
  3
Border (2x) ____  ____  .  ____  ____  .  ___
 72
65
 73
6
 40
88.8999999999999915
 49
25.3999999999999986
 74
0
 49
-12.6999999999999993
 74
0
 49
25.3999999999999986
 74
0
 49
-12.6999999999999993
 74
0
 49
0.0
 74
0
 49
-12.6999999999999993
 74
0
  0
LTYPE
  5
52
100
AcDbSymbolTableRecord
100
AcDbLinetypeTableRecord
  2
ACAD_ISO09W100
 70
0
  3
ISO long-dash double-short-dash ____ __ __ ____
 72
65
 73
6
 40
45.0
 49
24.0
 74
0
 49
-3.0
 74
0
 49
6.0
 74
0
 49
-3.0
 74
0
 49
6.0
 74
0
 49
-3.0
 74
0
  0
LTYPE
  5
53
100
AcDbSymbolTableRecord
100
AcDbLinetypeTableRecord
  2
DIVIDE2
 70
0
  3
Divide (.5x) __..__..__..__..__..__..__..__.._
 72
65
 73
6
 40
15.875
 49
6.3499999999999996
 74
0
 49
-3.1749999999999998
 74
0
 49
0.0
 74
0
 49
-3.1749999999999998
 74
0
 49
0.0
 74
0
 49
-3.1749999999999998
 74
0
  0
LTYPE
  5
54
100
AcDbSymbolTableRecord
100
AcDbLinetypeTableRecord
  2
PHANTOM2
 70
0
  3
Phantom (.5x) ___ _ _ ___ _ _ ___ _ _ ___ _ _
 72
65
 73
6
 40
31.7500000000000036
 49
15.875
 74
0
 49
-3.1749999999999998
 74
0
 49
3.1749999999999998
 74
0
 49
-3.1749999999999998
 74
0
 49
3.1749999999999998
 74
0
 49
-3.1749999999999998
 74
0
  0
LTYPE
  5
55
100
AcDbSymbolTableRecord
100
AcDbLinetypeTableRecord
  2
ACAD_ISO08W100
 70
0
  3
ISO long-dash short-dash ____ __ ____ __ ____ _
 72
65
 73
4
 40
36.0
 49
24.0
 74
0
 49
-3.0
 74
0
 49
6.0
 74
0
 49
-3.0
 74
0
  0
LTYPE
  5
56
100
AcDbSymbolTableRecord
100
AcDbLinetypeTableRecord
  2
HIDDEN2
 70
0
  3
Hidden (.5x) _ _ _ _ _ _ _ _ _ _ _ _ _ _ _ _ _ 
 72
65
 73
2
 40
4.7624999999999993
 49
3.1749999999999998
 74
0
 49
-1.5874999999999999
 74
0
  0
ENDTAB
  0
TABLE
  2
LAYER
  5
2
100
AcDbSymbolTable
 70
2
  0
LAYER
  5
10
100
AcDbSymbolTableRecord
100
AcDbLayerTableRecord
  2
0
 70
0
 62
7
420
0
  6
Continuous
370
25
390
F
  0
LAYER
  5
57
100
AcDbSymbolTableRecord
100
AcDbLayerTableRecord
  2
Contour
 70
0
 62
7
420
16777215
  6
Continuous
370
5
390
F
  0
ENDTAB
  0
TABLE
  2
STYLE
  5
3
100
AcDbSymbolTable
 70
1
  0
STYLE
  5
58
100
AcDbSymbolTableRecord
100
AcDbTextStyleTableRecord
  2
Standard
 70
0
 40
0.0
 41
1.0
 50
0.0
 71
0
 42
2.5
  3

  4

1001
ACAD
1000
txt
1071
0
  0
ENDTAB
  0
TABLE
  2
VIEW
  5
6
100
AcDbSymbolTable
 70
0
  0
ENDTAB
  0
TABLE
  2
UCS
  5
7
100
AcDbSymbolTable
 70
0
  0
ENDTAB
  0
TABLE
  2
APPID
  5
9
100
AcDbSymbolTable
 70
1
  0
APPID
  5
12
100
AcDbSymbolTableRecord
100
AcDbRegAppTableRecord
  2
ACAD
 70
0
  0
APPID
  5
59
100
AcDbSymbolTableRecord
100
AcDbRegAppTableRecord
  2
QCAD
 70
0
  0
ENDTAB
  0
TABLE
  2
DIMSTYLE
  5
A
100
AcDbSymbolTable
 70
1
100
AcDbDimStyleTable
 71
0
  0
DIMSTYLE
105
27
100
AcDbSymbolTableRecord
100
AcDbDimStyleTableRecord
  2
Standard
 41
0.25
 42
0.0625
 43
3.75
 44
0.125
 70
0
 73
0
 74
0
 77
1
 78
8
140
0.25
141
2.5
143
0.03937007874016
147
0.0625
171
3
172
1
271
2
272
2
274
3
278
44
283
0
284
8
340
58
  0
ENDTAB
  0
TABLE
  2
BLOCK_RECORD
  5
1
100
AcDbSymbolTable
 70
1
  0
BLOCK_RECORD
  5
1F
100
AcDbSymbolTableRecord
100
AcDbBlockTableRecord
  2
*Model_Space
340
22
  0
BLOCK_RECORD
  5
1B
100
AcDbSymbolTableRecord
100
AcDbBlockTableRecord
  2
*Paper_Space
340
1E
  0
BLOCK_RECORD
  5
23
100
AcDbSymbolTableRecord
100
AcDbBlockTableRecord
  2
*Paper_Space0
340
26
  0
ENDTAB
  0
ENDSEC
  0
SECTION
  2
BLOCKS
  0
BLOCK
  5
20
100
AcDbEntity
  8
0
100
AcDbBlockBegin
  2
*Model_Space
 70
0
 10
0.0
 20
0.0
 30
0.0
  3
*Model_Space
  1

  0
ENDBLK
  5
21
100
AcDbEntity
  8
0
100
AcDbBlockEnd
  0
BLOCK
  5
1C
100
AcDbEntity
 67
1
  8
0
100
AcDbBlockBegin
  2
*Paper_Space
 70
0
 10
0.0
 20
0.0
 30
0.0
  3
*Paper_Space
  1

  0
ENDBLK
  5
1D
100
AcDbEntity
 67
1
  8
0
100
AcDbBlockEnd
  0
BLOCK
  5
24
100
AcDbEntity
  8
0
100
AcDbBlockBegin
  2
*Paper_Space0
 70
0
 10
0.0
 20
0.0
 30
0.0
  3
*Paper_Space0
  1

  0
ENDBLK
  5
25
100
AcDbEntity
  8
0
100
AcDbBlockEnd
  0
ENDSEC
  0
SECTION
  2
ENTITIES
  0
LINE
  5
5A
100
AcDbEntity
100
AcDbLine
  8
Contour
 62
7
420
16777215
370
0
 48
1.0
  6
Continuous
 10
8.6250000000000036
 20
0.35
 30
0.0
 11
3.5250000000000057
 21
0.35
 31
0.0
  0
LINE
  5
5B
100
AcDbEntity
100
AcDbLine
  8
Contour
 62
7
420
16777215
370
0
 48
1.0
  6
Continuous
 10
2.9625000000000004
 20
0.3499999999999999
 30
0.0
 11
0.4875
 21
0.3499999999999999
 31
0.0
  0
LINE
  5
5C
100
AcDbEntity
100
AcDbLine
  8
Contour
 62
7
420
16777215
370
0
 48
1.0
  6
Continuous
 10
14.0750000000000028
 20
0.35
 30
0.0
 11
8.975000000000005
 21
0.35
 31
0.0
  0
LINE
  5
5D
100
AcDbEntity
100
AcDbLine
  8
Contour
 62
7
420
16777215
370
0
 48
1.0
  6
Continuous
 10
24.9499999999999993
 20
0.35
 30
0.0
 11
19.8500000000000014
 21
0.35
 31
0.0
  0
LINE
  5
5E
100
AcDbEntity
100
AcDbLine
  8
Contour
 62
7
420
16777215
370
0
 48
1.0
  6
Continuous
 10
19.5125000000000028
 20
0.35
 30
0.0
 11
14.4125000000000068
 21
0.35
 31
0.0
  0
LINE
  5
5F
100
AcDbEntity
100
AcDbLine
  8
Contour
 62
7
420
16777215
370
0
 48
1.0
  6
Continuous
 10
3.5250000000000057
 20
0.35
 30
0.0
 11
3.5250000000000057
 21
0.35
 31
0.0
  0
LINE
  5
60
100
AcDbEntity
100
AcDbLine
  8
Contour
 62
7
420
16777215
370
0
 48
1.0
  6
Continuous
 10
0.4875
 20
0.3499999999999999
 30
0.0
 11
0.4875
 21
0.3499999999999999
 31
0.0
  0
LINE
  5
61
100
AcDbEntity
100
AcDbLine
  8
Contour
 62
7
420
16777215
370
0
 48
1.0
  6
Continuous
 10
8.975000000000005
 20
0.35
 30
0.0
 11
8.975000000000005
 21
0.35
 31
0.0
  0
LINE
  5
62
100
AcDbEntity
100
AcDbLine
  8
Contour
 62
7
420
16777215
370
0
 48
1.0
  6
Continuous
 10
19.8500000000000014
 20
0.35
 30
0.0
 11
19.8500000000000014
 21
0.35
 31
0.0
  0
LINE
  5
63
100
AcDbEntity
100
AcDbLine
  8
Contour
 62
7
420
16777215
370
0
 48
1.0
  6
Continuous
 10
14.4125000000000068
 20
0.35
 30
0.0
 11
14.4125000000000068
 21
0.35
 31
0.0
  0
LINE
  5
64
100
AcDbEntity
100
AcDbLine
  8
Contour
 62
7
420
16777215
370
0
 48
1.0
  6
Continuous
 10
3.5250000000000057
 20
0.35
 30
0.0
 11
3.5250000000000057
 21
-0.35
 31
0.0
  0
LINE
  5
65
100
AcDbEntity
100
AcDbLine
  8
Contour
 62
7
420
16777215
370
0
 48
1.0
  6
Continuous
 10
0.4875
 20
0.3499999999999999
 30
0.0
 11
0.4875
 21
-0.3500000000000001
 31
0.0
  0
LINE
  5
66
100
AcDbEntity
100
AcDbLine
  8
Contour
 62
7
420
16777215
370
0
 48
1.0
  6
Continuous
 10
8.975000000000005
 20
0.35
 30
0.0
 11
8.975000000000005
 21
-0.35
 31
0.0
  0
LINE
  5
67
100
AcDbEntity
100
AcDbLine
  8
Contour
 62
7
420
16777215
370
0
 48
1.0
  6
Continuous
 10
19.8500000000000014
 20
0.35
 30
0.0
 11
19.8500000000000014
 21
-0.35
 31
0.0
  0
LINE
  5
68
100
AcDbEntity
100
AcDbLine
  8
Contour
 62
7
420
16777215
370
0
 48
1.0
  6
Continuous
 10
14.4125000000000068
 20
0.35
 30
0.0
 11
14.4125000000000068
 21
-0.35
 31
0.0
  0
LINE
  5
69
100
AcDbEntity
100
AcDbLine
  8
Contour
 62
7
420
16777215
370
0
 48
1.0
  6
Continuous
 10
3.5250000000000057
 20
-0.35
 30
0.0
 11
3.5250000000000057
 21
-0.35
 31
0.0
  0
LINE
  5
6A
100
AcDbEntity
100
AcDbLine
  8
Contour
 62
7
420
16777215
370
0
 48
1.0
  6
Continuous
 10
0.4875
 20
-0.3500000000000001
 30
0.0
 11
0.4875
 21
-0.3500000000000001
 31
0.0
  0
LINE
  5
6B
100
AcDbEntity
100
AcDbLine
  8
Contour
 62
7
420
16777215
370
0
 48
1.0
  6
Continuous
 10
8.975000000000005
 20
-0.35
 30
0.0
 11
8.975000000000005
 21
-0.35
 31
0.0
  0
LINE
  5
6C
100
AcDbEntity
100
AcDbLine
  8
Contour
 62
7
420
16777215
370
0
 48
1.0
  6
Continuous
 10
19.8500000000000014
 20
-0.35
 30
0.0
 11
19.8500000000000014
 21
-0.35
 31
0.0
  0
LINE
  5
6D
100
AcDbEntity
100
AcDbLine
  8
Contour
 62
7
420
16777215
370
0
 48
1.0
  6
Continuous
 10
14.4125000000000068
 20
-0.35
 30
0.0
 11
14.4125000000000068
 21
-0.35
 31
0.0
  0
LINE
  5
6E
100
AcDbEntity
100
AcDbLine
  8
Contour
 62
7
420
16777215
370
0
 48
1.0
  6
Continuous
 10
3.5250000000000057
 20
-0.35
 30
0.0
 11
8.6250000000000036
 21
-0.35
 31
0.0
  0
LINE
  5
6F
100
AcDbEntity
100
AcDbLine
  8
Contour
 62
7
420
16777215
370
0
 48
1.0
  6
Continuous
 10
0.4875
 20
-0.3500000000000001
 30
0.0
 11
2.9625000000000004
 21
-0.3500000000000001
 31
0.0
  0
LINE
  5
70
100
AcDbEntity
100
AcDbLine
  8
Contour
 62
7
420
16777215
370
0
 48
1.0
  6
Continuous
 10
8.975000000000005
 20
-0.35
 30
0.0
 11
14.0750000000000028
 21
-0.35
 31
0.0
  0
LINE
  5
71
100
AcDbEntity
100
AcDbLine
  8
Contour
 62
7
420
16777215
370
0
 48
1.0
  6
Continuous
 10
19.8500000000000014
 20
-0.35
 30
0.0
 11
24.9499999999999993
 21
-0.35
 31
0.0
  0
LINE
  5
72
100
AcDbEntity
100
AcDbLine
  8
Contour
 62
7
420
16777215
370
0
 48
1.0
  6
Continuous
 10
14.4125000000000068
 20
-0.35
 30
0.0
 11
19.5125000000000028
 21
-0.35
 31
0.0
  0
LINE
  5
73
100
AcDbEntity
100
AcDbLine
  8
Contour
 62
7
420
16777215
370
0
 48
1.0
  6
Continuous
 10
8.6250000000000036
 20
-0.35
 30
0.0
 11
8.6250000000000036
 21
-0.35
 31
0.0
  0
LINE
  5
74
100
AcDbEntity
100
AcDbLine
  8
Contour
 62
7
420
16777215
370
0
 48
1.0
  6
Continuous
 10
2.9625000000000004
 20
-0.3500000000000001
 30
0.0
 11
2.9625000000000004
 21
-0.3500000000000001
 31
0.0
  0
LINE
  5
75
100
AcDbEntity
100
AcDbLine
  8
Contour
 62
7
420
16777215
370
0
 48
1.0
  6
Continuous
 10
14.0750000000000028
 20
-0.35
 30
0.0
 11
14.0750000000000028
 21
-0.35
 31
0.0
  0
LINE
  5
76
100
AcDbEntity
100
AcDbLine
  8
Contour
 62
7
420
16777215
370
0
 48
1.0
  6
Continuous
 10
24.9499999999999993
 20
-0.35
 30
0.0
 11
24.9499999999999993
 21
-0.35
 31
0.0
  0
LINE
  5
77
100
AcDbEntity
100
AcDbLine
  8
Contour
 62
7
420
16777215
370
0
 48
1.0
  6
Continuous
 10
19.5125000000000028
 20
-0.35
 30
0.0
 11
19.5125000000000028
 21
-0.35
 31
0.0
  0
LINE
  5
78
100
AcDbEntity
100
AcDbLine
  8
Contour
 62
7
420
16777215
370
0
 48
1.0
  6
Continuous
 10
8.6250000000000036
 20
-0.35
 30
0.0
 11
8.6250000000000036
 21
0.35
 31
0.0
  0
LINE
  5
79
100
AcDbEntity
100
AcDbLine
  8
Contour
 62
7
420
16777215
370
0
 48
1.0
  6
Continuous
 10
2.9625000000000004
 20
-0.3500000000000001
 30
0.0
 11
2.9625000000000004
 21
0.3499999999999999
 31
0.0
  0
LINE
  5
7A
100
AcDbEntity
100
AcDbLine
  8
Contour
 62
7
420
16777215
370
0
 48
1.0
  6
Continuous
 10
14.0750000000000028
 20
-0.35
 30
0.0
 11
14.0750000000000028
 21
0.35
 31
0.0
  0
LINE
  5
7B
100
AcDbEntity
100
AcDbLine
  8
Contour
 62
7
420
16777215
370
0
 48
1.0
  6
Continuous
 10
19.5125000000000028
 20
-0.35
 30
0.0
 11
19.5125000000000028
 21
0.35
 31
0.0
  0
LINE
  5
7C
100
AcDbEntity
100
AcDbLine
  8
Contour
 62
7
420
16777215
370
0
 48
1.0
  6
Continuous
 10
24.9499999999999993
 20
-0.35
 30
0.0
 11
24.9499999999999993
 21
0.35
 31
0.0
  0
LINE
  5
7D
100
AcDbEntity
100
AcDbLine
  8
Contour
 62
7
420
16777215
370
0
 48
1.0
  6
Continuous
 10
8.6250000000000036
 20
0.35
 30
0.0
 11
8.6250000000000036
 21
0.35
 31
0.0
  0
LINE
  5
7E
100
AcDbEntity
100
AcDbLine
  8
Contour
 62
7
420
16777215
370
0
 48
1.0
  6
Continuous
 10
2.9625000000000004
 20
0.3499999999999999
 30
0.0
 11
2.9625000000000004
 21
0.3499999999999999
 31
0.0
  0
LINE
  5
7F
100
AcDbEntity
100
AcDbLine
  8
Contour
 62
7
420
16777215
370
0
 48
1.0
  6
Continuous
 10
14.0750000000000028
 20
0.35
 30
0.0
 11
14.0750000000000028
 21
0.35
 31
0.0
  0
LINE
  5
80
100
AcDbEntity
100
AcDbLine
  8
Contour
 62
7
420
16777215
370
0
 48
1.0
  6
Continuous
 10
19.5125000000000028
 20
0.35
 30
0.0
 11
19.5125000000000028
 21
0.35
 31
0.0
  0
LINE
  5
81
100
AcDbEntity
100
AcDbLine
  8
Contour
 62
7
420
16777215
370
0
 48
1.0
  6
Continuous
 10
24.9499999999999993
 20
0.35
 30
0.0
 11
24.9499999999999993
 21
0.35
 31
0.0
  0
CIRCLE
  5
82
100
AcDbEntity
100
AcDbCircle
  8
Contour
 62
7
420
16777215
370
0
 48
1.0
  6
Continuous
 10
3.9750000000000059
 20
0.0
 30
0.0
 40
0.12008
  0
CIRCLE
  5
83
100
AcDbEntity
100
AcDbCircle
  8
Contour
 62
7
420
16777215
370
0
 48
1.0
  6
Continuous
 10
0.9375
 20
0.0
 30
0.0
 40
0.12008
  0
CIRCLE
  5
84
100
AcDbEntity
100
AcDbCircle
  8
Contour
 62
7
420
16777215
370
0
 48
1.0
  6
Continuous
 10
9.4250000000000043
 20
0.0
 30
0.0
 40
0.12008
  0
CIRCLE
  5
85
100
AcDbEntity
100
AcDbCircle
  8
Contour
 62
7
420
16777215
370
0
 48
1.0
  6
Continuous
 10
14.862500000000006
 20
0.0
 30
0.0
 40
0.12008
  0
CIRCLE
  5
86
100
AcDbEntity
100
AcDbCircle
  8
Contour
 62
7
420
16777215
370
0
 48
1.0
  6
Continuous
 10
20.3000000000000007
 20
0.0
 30
0.0
 40
0.12008
  0
CIRCLE
  5
87
100
AcDbEntity
100
AcDbCircle
  8
Contour
 62
7
420
16777215
370
0
 48
1.0
  6
Continuous
 10
4.5750000000000055
 20
0.0
 30
0.0
 40
0.12008
  0
CIRCLE
  5
88
100
AcDbEntity
100
AcDbCircle
  8
Contour
 62
7
420
16777215
370
0
 48
1.0
  6
Continuous
 10
1.5375000000000001
 20
0.0
 30
0.0
 40
0.12008
  0
CIRCLE
  5
89
100
AcDbEntity
100
AcDbCircle
  8
Contour
 62
7
420
16777215
370
0
 48
1.0
  6
Continuous
 10
10.0250000000000039
 20
0.0
 30
0.0
 40
0.12008
  0
CIRCLE
  5
8A
100
AcDbEntity
100
AcDbCircle
  8
Contour
 62
7
420
16777215
370
0
 48
1.0
  6
Continuous
 10
15.4625000000000057
 20
0.0
 30
0.0
 40
0.12008
  0
CIRCLE
  5
8B
100
AcDbEntity
100
AcDbCircle
  8
Contour
 62
7
420
16777215
370
0
 48
1.0
  6
Continuous
 10
20.9000000000000021
 20
0.0
 30
0.0
 40
0.12008
  0
CIRCLE
  5
8C
100
AcDbEntity
100
AcDbCircle
  8
Contour
 62
7
420
16777215
370
0
 48
1.0
  6
Continuous
 10
5.175000000000006
 20
0.0
 30
0.0
 40
0.12008
  0
CIRCLE
  5
8D
100
AcDbEntity
100
AcDbCircle
  8
Contour
 62
7
420
16777215
370
0
 48
1.0
  6
Continuous
 10
2.0375000000000001
 20
0.0
 30
0.0
 40
0.12008
  0
CIRCLE
  5
8E
100
AcDbEntity
100
AcDbCircle
  8
Contour
 62
7
420
16777215
370
0
 48
1.0
  6
Continuous
 10
10.6250000000000036
 20
0.0
 30
0.0
 40
0.12008
  0
CIRCLE
  5
8F
100
AcDbEntity
100
AcDbCircle
  8
Contour
 62
7
420
16777215
370
0
 48
1.0
  6
Continuous
 10
16.0625000000000071
 20
0.0
 30
0.0
 40
0.12008
  0
CIRCLE
  5
90
100
AcDbEntity
100
AcDbCircle
  8
Contour
 62
7
420
16777215
370
0
 48
1.0
  6
Continuous
 10
21.5
 20
0.0
 30
0.0
 40
0.12008
  0
CIRCLE
  5
91
100
AcDbEntity
100
AcDbCircle
  8
Contour
 62
7
420
16777215
370
0
 48
1.0
  6
Continuous
 10
5.7750000000000066
 20
0.0
 30
0.0
 40
0.12008
  0
CIRCLE
  5
92
100
AcDbEntity
100
AcDbCircle
  8
Contour
 62
7
420
16777215
370
0
 48
1.0
  6
Continuous
 10
2.5374999999999996
 20
0.0
 30
0.0
 40
0.12008
  0
CIRCLE
  5
93
100
AcDbEntity
100
AcDbCircle
  8
Contour
 62
7
420
16777215
370
0
 48
1.0
  6
Continuous
 10
11.225000000000005
 20
0.0
 30
0.0
 40
0.12008
  0
CIRCLE
  5
94
100
AcDbEntity
100
AcDbCircle
  8
Contour
 62
7
420
16777215
370
0
 48
1.0
  6
Continuous
 10
16.6625000000000085
 20
0.0
 30
0.0
 40
0.12008
  0
CIRCLE
  5
95
100
AcDbEntity
100
AcDbCircle
  8
Contour
 62
7
420
16777215
370
0
 48
1.0
  6
Continuous
 10
22.1000000000000014
 20
0.0
 30
0.0
 40
0.12008
  0
CIRCLE
  5
96
100
AcDbEntity
100
AcDbCircle
  8
Contour
 62
7
420
16777215
370
0
 48
1.0
  6
Continuous
 10
6.3750000000000062
 20
0.0
 30
0.0
 40
0.12008
  0
CIRCLE
  5
97
100
AcDbEntity
100
AcDbCircle
  8
Contour
 62
7
420
16777215
370
0
 48
1.0
  6
Continuous
 10
1.2375
 20
0.125
 30
0.0
 40
0.06102
  0
CIRCLE
  5
98
100
AcDbEntity
100
AcDbCircle
  8
Contour
 62
7
420
16777215
370
0
 48
1.0
  6
Continuous
 10
11.8250000000000046
 20
0.0
 30
0.0
 40
0.12008
  0
CIRCLE
  5
99
100
AcDbEntity
100
AcDbCircle
  8
Contour
 62
7
420
16777215
370
0
 48
1.0
  6
Continuous
 10
17.2625000000000028
 20
0.0
 30
0.0
 40
0.12008
  0
CIRCLE
  5
9A
100
AcDbEntity
100
AcDbCircle
  8
Contour
 62
7
420
16777215
370
0
 48
1.0
  6
Continuous
 10
22.6999999999999993
 20
0.0
 30
0.0
 40
0.12008
  0
CIRCLE
  5
9B
100
AcDbEntity
100
AcDbCircle
  8
Contour
 62
7
420
16777215
370
0
 48
1.0
  6
Continuous
 10
6.9750000000000059
 20
0.0
 30
0.0
 40
0.12008
  0
CIRCLE
  5
9C
100
AcDbEntity
100
AcDbCircle
  8
Contour
 62
7
420
16777215
370
0
 48
1.0
  6
Continuous
 10
1.2375
 20
-0.125
 30
0.0
 40
0.06102
  0
CIRCLE
  5
9D
100
AcDbEntity
100
AcDbCircle
  8
Contour
 62
7
420
16777215
370
0
 48
1.0
  6
Continuous
 10
12.4250000000000043
 20
0.0
 30
0.0
 40
0.12008
  0
CIRCLE
  5
9E
100
AcDbEntity
100
AcDbCircle
  8
Contour
 62
7
420
16777215
370
0
 48
1.0
  6
Continuous
 10
17.8625000000000043
 20
0.0
 30
0.0
 40
0.12008
  0
CIRCLE
  5
9F
100
AcDbEntity
100
AcDbCircle
  8
Contour
 62
7
420
16777215
370
0
 48
1.0
  6
Continuous
 10
23.3000000000000007
 20
0.0
 30
0.0
 40
0.12008
  0
CIRCLE
  5
A0
100
AcDbEntity
100
AcDbCircle
  8
Contour
 62
7
420
16777215
370
0
 48
1.0
  6
Continuous
 10
7.5750000000000055
 20
0.0
 30
0.0
 40
0.12008
  0
LINE
  5
A1
100
AcDbEntity
100
AcDbLine
  8
Contour
 62
7
420
16777215
370
0
 48
1.0
  6
Continuous
 10
0.44813
 20
-0.3500000000000001
 30
0.0
 11
0.5268700000000001
 21
-0.3500000000000001
 31
0.0
  0
CIRCLE
  5
A2
100
AcDbEntity
100
AcDbCircle
  8
Contour
 62
7
420
16777215
370
0
 48
1.0
  6
Continuous
 10
13.0250000000000039
 20
0.0
 30
0.0
 40
0.12008
  0
CIRCLE
  5
A3
100
AcDbEntity
100
AcDbCircle
  8
Contour
 62
7
420
16777215
370
0
 48
1.0
  6
Continuous
 10
18.4625000000000057
 20
0.0
 30
0.0
 40
0.12008
  0
CIRCLE
  5
A4
100
AcDbEntity
100
AcDbCircle
  8
Contour
 62
7
420
16777215
370
0
 48
1.0
  6
Continuous
 10
23.9000000000000021
 20
0.0
 30
0.0
 40
0.12008
  0
CIRCLE
  5
A5
100
AcDbEntity
100
AcDbCircle
  8
Contour
 62
7
420
16777215
370
0
 48
1.0
  6
Continuous
 10
8.1750000000000043
 20
0.0
 30
0.0
 40
0.12008
  0
LINE
  5
A6
100
AcDbEntity
100
AcDbLine
  8
Contour
 62
7
420
16777215
370
0
 48
1.0
  6
Continuous
 10
0.4875
 20
-0.3893700000000001
 30
0.0
 11
0.4875
 21
-0.3106300000000001
 31
0.0
  0
CIRCLE
  5
A7
100
AcDbEntity
100
AcDbCircle
  8
Contour
 62
7
420
16777215
370
0
 48
1.0
  6
Continuous
 10
13.6250000000000036
 20
0.0
 30
0.0
 40
0.12008
  0
CIRCLE
  5
A8
100
AcDbEntity
100
AcDbCircle
  8
Contour
 62
7
420
16777215
370
0
 48
1.0
  6
Continuous
 10
19.0625000000000071
 20
0.0
 30
0.0
 40
0.12008
  0
CIRCLE
  5
A9
100
AcDbEntity
100
AcDbCircle
  8
Contour
 62
7
420
16777215
370
0
 48
1.0
  6
Continuous
 10
24.5
 20
0.0
 30
0.0
 40
0.12008
  0
LINE
  5
AA
100
AcDbEntity
100
AcDbLine
  8
Contour
 62
7
420
16777215
370
0
 48
1.0
  6
Continuous
 10
0.8981300000000001
 20
0.0
 30
0.0
 11
0.9768700000000001
 21
0.0
 31
0.0
  0
CIRCLE
  5
AB
100
AcDbEntity
100
AcDbCircle
  8
Contour
 62
7
420
16777215
370
0
 48
1.0
  6
Continuous
 10
4.2750000000000057
 20
0.125
 30
0.0
 40
0.06102
  0
CIRCLE
  5
AC
100
AcDbEntity
100
AcDbCircle
  8
Contour
 62
7
420
16777215
370
0
 48
1.0
  6
Continuous
 10
9.725000000000005
 20
0.125
 30
0.0
 40
0.06102
  0
CIRCLE
  5
AD
100
AcDbEntity
100
AcDbCircle
  8
Contour
 62
7
420
16777215
370
0
 48
1.0
  6
Continuous
 10
15.1625000000000068
 20
0.125
 30
0.0
 40
0.06102
  0
CIRCLE
  5
AE
100
AcDbEntity
100
AcDbCircle
  8
Contour
 62
7
420
16777215
370
0
 48
1.0
  6
Continuous
 10
20.6000000000000014
 20
0.125
 30
0.0
 40
0.06102
  0
LINE
  5
AF
100
AcDbEntity
100
AcDbLine
  8
Contour
 62
7
420
16777215
370
0
 48
1.0
  6
Continuous
 10
0.9375
 20
-0.0393700000000001
 30
0.0
 11
0.9375
 21
0.0393699999999999
 31
0.0
  0
CIRCLE
  5
B0
100
AcDbEntity
100
AcDbCircle
  8
Contour
 62
7
420
16777215
370
0
 48
1.0
  6
Continuous
 10
4.2750000000000057
 20
-0.125
 30
0.0
 40
0.06102
  0
CIRCLE
  5
B1
100
AcDbEntity
100
AcDbCircle
  8
Contour
 62
7
420
16777215
370
0
 48
1.0
  6
Continuous
 10
9.725000000000005
 20
-0.125
 30
0.0
 40
0.06102
  0
CIRCLE
  5
B2
100
AcDbEntity
100
AcDbCircle
  8
Contour
 62
7
420
16777215
370
0
 48
1.0
  6
Continuous
 10
15.1625000000000068
 20
-0.125
 30
0.0
 40
0.06102
  0
CIRCLE
  5
B3
100
AcDbEntity
100
AcDbCircle
  8
Contour
 62
7
420
16777215
370
0
 48
1.0
  6
Continuous
 10
20.6000000000000014
 20
-0.125
 30
0.0
 40
0.06102
  0
LINE
  5
B4
100
AcDbEntity
100
AcDbLine
  8
Contour
 62
7
420
16777215
370
0
 48
1.0
  6
Continuous
 10
1.4981300000000002
 20
0.0
 30
0.0
 11
1.57687
 21
0.0
 31
0.0
  0
CIRCLE
  5
B5
100
AcDbEntity
100
AcDbCircle
  8
Contour
 62
7
420
16777215
370
0
 48
1.0
  6
Continuous
 10
5.4750000000000059
 20
0.125
 30
0.0
 40
0.06102
  0
CIRCLE
  5
B6
100
AcDbEntity
100
AcDbCircle
  8
Contour
 62
7
420
16777215
370
0
 48
1.0
  6
Continuous
 10
10.9250000000000043
 20
0.125
 30
0.0
 40
0.06102
  0
CIRCLE
  5
B7
100
AcDbEntity
100
AcDbCircle
  8
Contour
 62
7
420
16777215
370
0
 48
1.0
  6
Continuous
 10
16.3625000000000043
 20
0.125
 30
0.0
 40
0.06102
  0
CIRCLE
  5
B8
100
AcDbEntity
100
AcDbCircle
  8
Contour
 62
7
420
16777215
370
0
 48
1.0
  6
Continuous
 10
21.8000000000000007
 20
0.125
 30
0.0
 40
0.06102
  0
LINE
  5
B9
100
AcDbEntity
100
AcDbLine
  8
Contour
 62
7
420
16777215
370
0
 48
1.0
  6
Continuous
 10
1.5375000000000001
 20
-0.0393700000000001
 30
0.0
 11
1.5375000000000001
 21
0.0393699999999999
 31
0.0
  0
CIRCLE
  5
BA
100
AcDbEntity
100
AcDbCircle
  8
Contour
 62
7
420
16777215
370
0
 48
1.0
  6
Continuous
 10
5.4750000000000059
 20
-0.125
 30
0.0
 40
0.06102
  0
CIRCLE
  5
BB
100
AcDbEntity
100
AcDbCircle
  8
Contour
 62
7
420
16777215
370
0
 48
1.0
  6
Continuous
 10
10.9250000000000043
 20
-0.125
 30
0.0
 40
0.06102
  0
CIRCLE
  5
BC
100
AcDbEntity
100
AcDbCircle
  8
Contour
 62
7
420
16777215
370
0
 48
1.0
  6
Continuous
 10
16.3625000000000043
 20
-0.125
 30
0.0
 40
0.06102
  0
CIRCLE
  5
BD
100
AcDbEntity
100
AcDbCircle
  8
Contour
 62
7
420
16777215
370
0
 48
1.0
  6
Continuous
 10
21.8000000000000007
 20
-0.125
 30
0.0
 40
0.06102
  0
LINE
  5
BE
100
AcDbEntity
100
AcDbLine
  8
Contour
 62
7
420
16777215
370
0
 48
1.0
  6
Continuous
 10
1.9981300000000002
 20
0.0
 30
0.0
 11
2.07687
 21
0.0
 31
0.0
  0
CIRCLE
  5
BF
100
AcDbEntity
100
AcDbCircle
  8
Contour
 62
7
420
16777215
370
0
 48
1.0
  6
Continuous
 10
6.6750000000000052
 20
0.125
 30
0.0
 40
0.06102
  0
CIRCLE
  5
C0
100
AcDbEntity
100
AcDbCircle
  8
Contour
 62
7
420
16777215
370
0
 48
1.0
  6
Continuous
 10
12.1250000000000036
 20
0.125
 30
0.0
 40
0.06102
  0
CIRCLE
  5
C1
100
AcDbEntity
100
AcDbCircle
  8
Contour
 62
7
420
16777215
370
0
 48
1.0
  6
Continuous
 10
17.5625000000000071
 20
0.125
 30
0.0
 40
0.06102
  0
CIRCLE
  5
C2
100
AcDbEntity
100
AcDbCircle
  8
Contour
 62
7
420
16777215
370
0
 48
1.0
  6
Continuous
 10
23.0
 20
0.125
 30
0.0
 40
0.06102
  0
LINE
  5
C3
100
AcDbEntity
100
AcDbLine
  8
Contour
 62
7
420
16777215
370
0
 48
1.0
  6
Continuous
 10
2.0375000000000001
 20
-0.0393700000000001
 30
0.0
 11
2.0375000000000001
 21
0.0393699999999999
 31
0.0
  0
CIRCLE
  5
C4
100
AcDbEntity
100
AcDbCircle
  8
Contour
 62
7
420
16777215
370
0
 48
1.0
  6
Continuous
 10
6.6750000000000052
 20
-0.125
 30
0.0
 40
0.06102
  0
CIRCLE
  5
C5
100
AcDbEntity
100
AcDbCircle
  8
Contour
 62
7
420
16777215
370
0
 48
1.0
  6
Continuous
 10
12.1250000000000036
 20
-0.125
 30
0.0
 40
0.06102
  0
CIRCLE
  5
C6
100
AcDbEntity
100
AcDbCircle
  8
Contour
 62
7
420
16777215
370
0
 48
1.0
  6
Continuous
 10
17.5625000000000071
 20
-0.125
 30
0.0
 40
0.06102
  0
CIRCLE
  5
C7
100
AcDbEntity
100
AcDbCircle
  8
Contour
 62
7
420
16777215
370
0
 48
1.0
  6
Continuous
 10
23.0
 20
-0.125
 30
0.0
 40
0.06102
  0
CIRCLE
  5
C8
100
AcDbEntity
100
AcDbCircle
  8
Contour
 62
7
420
16777215
370
0
 48
1.0
  6
Continuous
 10
7.8750000000000044
 20
0.125
 30
0.0
 40
0.06102
  0
LINE
  5
C9
100
AcDbEntity
100
AcDbLine
  8
Contour
 62
7
420
16777215
370
0
 48
1.0
  6
Continuous
 10
2.4981299999999997
 20
0.0
 30
0.0
 11
2.5768700000000004
 21
0.0
 31
0.0
  0
CIRCLE
  5
CA
100
AcDbEntity
100
AcDbCircle
  8
Contour
 62
7
420
16777215
370
0
 48
1.0
  6
Continuous
 10
13.3250000000000028
 20
0.125
 30
0.0
 40
0.06102
  0
CIRCLE
  5
CB
100
AcDbEntity
100
AcDbCircle
  8
Contour
 62
7
420
16777215
370
0
 48
1.0
  6
Continuous
 10
18.7625000000000028
 20
0.125
 30
0.0
 40
0.06102
  0
CIRCLE
  5
CC
100
AcDbEntity
100
AcDbCircle
  8
Contour
 62
7
420
16777215
370
0
 48
1.0
  6
Continuous
 10
24.1999999999999993
 20
0.125
 30
0.0
 40
0.06102
  0
CIRCLE
  5
CD
100
AcDbEntity
100
AcDbCircle
  8
Contour
 62
7
420
16777215
370
0
 48
1.0
  6
Continuous
 10
7.8750000000000044
 20
-0.125
 30
0.0
 40
0.06102
  0
LINE
  5
CE
100
AcDbEntity
100
AcDbLine
  8
Contour
 62
7
420
16777215
370
0
 48
1.0
  6
Continuous
 10
2.5374999999999996
 20
-0.0393700000000001
 30
0.0
 11
2.5374999999999996
 21
0.0393699999999999
 31
0.0
  0
CIRCLE
  5
CF
100
AcDbEntity
100
AcDbCircle
  8
Contour
 62
7
420
16777215
370
0
 48
1.0
  6
Continuous
 10
13.3250000000000028
 20
-0.125
 30
0.0
 40
0.06102
  0
CIRCLE
  5
D0
100
AcDbEntity
100
AcDbCircle
  8
Contour
 62
7
420
16777215
370
0
 48
1.0
  6
Continuous
 10
18.7625000000000028
 20
-0.125
 30
0.0
 40
0.06102
  0
CIRCLE
  5
D1
100
AcDbEntity
100
AcDbCircle
  8
Contour
 62
7
420
16777215
370
0
 48
1.0
  6
Continuous
 10
24.1999999999999993
 20
-0.125
 30
0.0
 40
0.06102
  0
LINE
  5
D2
100
AcDbEntity
100
AcDbLine
  8
Contour
 62
7
420
16777215
370
0
 48
1.0
  6
Continuous
 10
3.4856300000000058
 20
-0.35
 30
0.0
 11
3.5643700000000056
 21
-0.35
 31
0.0
  0
LINE
  5
D3
100
AcDbEntity
100
AcDbLine
  8
Contour
 62
7
420
16777215
370
0
 48
1.0
  6
Continuous
 10
1.1981299999999999
 20
0.125
 30
0.0
 11
1.2768700000000002
 21
0.125
 31
0.0
  0
LINE
  5
D4
100
AcDbEntity
100
AcDbLine
  8
Contour
 62
7
420
16777215
370
0
 48
1.0
  6
Continuous
 10
8.9356300000000033
 20
-0.35
 30
0.0
 11
9.0143700000000031
 21
-0.35
 31
0.0
  0
LINE
  5
D5
100
AcDbEntity
100
AcDbLine
  8
Contour
 62
7
420
16777215
370
0
 48
1.0
  6
Continuous
 10
14.3731300000000051
 20
-0.35
 30
0.0
 11
14.4518700000000049
 21
-0.35
 31
0.0
  0
LINE
  5
D6
100
AcDbEntity
100
AcDbLine
  8
Contour
 62
7
420
16777215
370
0
 48
1.0
  6
Continuous
 10
19.8106299999999997
 20
-0.35
 30
0.0
 11
19.8893699999999995
 21
-0.35
 31
0.0
  0
LINE
  5
D7
100
AcDbEntity
100
AcDbLine
  8
Contour
 62
7
420
16777215
370
0
 48
1.0
  6
Continuous
 10
3.5250000000000057
 20
-0.38937
 30
0.0
 11
3.5250000000000057
 21
-0.31063
 31
0.0
  0
LINE
  5
D8
100
AcDbEntity
100
AcDbLine
  8
Contour
 62
7
420
16777215
370
0
 48
1.0
  6
Continuous
 10
1.2375
 20
0.0856299999999999
 30
0.0
 11
1.2375
 21
0.1643699999999999
 31
0.0
  0
LINE
  5
D9
100
AcDbEntity
100
AcDbLine
  8
Contour
 62
7
420
16777215
370
0
 48
1.0
  6
Continuous
 10
8.975000000000005
 20
-0.38937
 30
0.0
 11
8.975000000000005
 21
-0.31063
 31
0.0
  0
LINE
  5
DA
100
AcDbEntity
100
AcDbLine
  8
Contour
 62
7
420
16777215
370
0
 48
1.0
  6
Continuous
 10
14.4125000000000068
 20
-0.38937
 30
0.0
 11
14.4125000000000068
 21
-0.31063
 31
0.0
  0
LINE
  5
DB
100
AcDbEntity
100
AcDbLine
  8
Contour
 62
7
420
16777215
370
0
 48
1.0
  6
Continuous
 10
19.8500000000000014
 20
-0.38937
 30
0.0
 11
19.8500000000000014
 21
-0.31063
 31
0.0
  0
LINE
  5
DC
100
AcDbEntity
100
AcDbLine
  8
Contour
 62
7
420
16777215
370
0
 48
1.0
  6
Continuous
 10
3.935630000000006
 20
0.0
 30
0.0
 11
4.0143700000000058
 21
0.0
 31
0.0
  0
LINE
  5
DD
100
AcDbEntity
100
AcDbLine
  8
Contour
 62
7
420
16777215
370
0
 48
1.0
  6
Continuous
 10
9.3856300000000044
 20
0.0
 30
0.0
 11
9.4643700000000042
 21
0.0
 31
0.0
  0
LINE
  5
DE
100
AcDbEntity
100
AcDbLine
  8
Contour
 62
7
420
16777215
370
0
 48
1.0
  6
Continuous
 10
1.1981299999999999
 20
-0.125
 30
0.0
 11
1.2768700000000002
 21
-0.125
 31
0.0
  0
LINE
  5
DF
100
AcDbEntity
100
AcDbLine
  8
Contour
 62
7
420
16777215
370
0
 48
1.0
  6
Continuous
 10
14.8231300000000061
 20
0.0
 30
0.0
 11
14.9018700000000059
 21
0.0
 31
0.0
  0
LINE
  5
E0
100
AcDbEntity
100
AcDbLine
  8
Contour
 62
7
420
16777215
370
0
 48
1.0
  6
Continuous
 10
20.2606300000000026
 20
0.0
 30
0.0
 11
20.3393699999999988
 21
0.0
 31
0.0
  0
LINE
  5
E1
100
AcDbEntity
100
AcDbLine
  8
Contour
 62
7
420
16777215
370
0
 48
1.0
  6
Continuous
 10
3.9750000000000059
 20
-0.03937
 30
0.0
 11
3.9750000000000059
 21
0.03937
 31
0.0
  0
LINE
  5
E2
100
AcDbEntity
100
AcDbLine
  8
Contour
 62
7
420
16777215
370
0
 48
1.0
  6
Continuous
 10
9.4250000000000043
 20
-0.03937
 30
0.0
 11
9.4250000000000043
 21
0.03937
 31
0.0
  0
LINE
  5
E3
100
AcDbEntity
100
AcDbLine
  8
Contour
 62
7
420
16777215
370
0
 48
1.0
  6
Continuous
 10
1.2375
 20
-0.1643700000000001
 30
0.0
 11
1.2375
 21
-0.0856300000000001
 31
0.0
  0
LINE
  5
E4
100
AcDbEntity
100
AcDbLine
  8
Contour
 62
7
420
16777215
370
0
 48
1.0
  6
Continuous
 10
14.862500000000006
 20
-0.03937
 30
0.0
 11
14.862500000000006
 21
0.03937
 31
0.0
  0
LINE
  5
E5
100
AcDbEntity
100
AcDbLine
  8
Contour
 62
7
420
16777215
370
0
 48
1.0
  6
Continuous
 10
20.3000000000000007
 20
-0.03937
 30
0.0
 11
20.3000000000000007
 21
0.03937
 31
0.0
  0
LINE
  5
E6
100
AcDbEntity
100
AcDbLine
  8
Contour
 62
7
420
16777215
370
0
 48
1.0
  6
Continuous
 10
4.5356300000000056
 20
0.0
 30
0.0
 11
4.6143700000000054
 21
0.0
 31
0.0
  0
LINE
  5
E7
100
AcDbEntity
100
AcDbLine
  8
Contour
 62
7
420
16777215
370
0
 48
1.0
  6
Continuous
 10
9.985630000000004
 20
0.0
 30
0.0
 11
10.0643700000000038
 21
0.0
 31
0.0
  0
LINE
  5
E8
100
AcDbEntity
100
AcDbLine
  8
Contour
 62
7
420
16777215
370
0
 48
1.0
  6
Continuous
 10
15.4231300000000058
 20
0.0
 30
0.0
 11
15.5018700000000056
 21
0.0
 31
0.0
  0
LINE
  5
E9
100
AcDbEntity
100
AcDbLine
  8
Contour
 62
7
420
16777215
370
0
 48
1.0
  6
Continuous
 10
20.8606300000000005
 20
0.0
 30
0.0
 11
20.9393700000000003
 21
0.0
 31
0.0
  0
LINE
  5
EA
100
AcDbEntity
100
AcDbLine
  8
Contour
 62
7
420
16777215
370
0
 48
1.0
  6
Continuous
 10
4.5750000000000055
 20
-0.03937
 30
0.0
 11
4.5750000000000055
 21
0.03937
 31
0.0
  0
LINE
  5
EB
100
AcDbEntity
100
AcDbLine
  8
Contour
 62
7
420
16777215
370
0
 48
1.0
  6
Continuous
 10
10.0250000000000039
 20
-0.03937
 30
0.0
 11
10.0250000000000039
 21
0.03937
 31
0.0
  0
LINE
  5
EC
100
AcDbEntity
100
AcDbLine
  8
Contour
 62
7
420
16777215
370
0
 48
1.0
  6
Continuous
 10
15.4625000000000057
 20
-0.03937
 30
0.0
 11
15.4625000000000057
 21
0.03937
 31
0.0
  0
LINE
  5
ED
100
AcDbEntity
100
AcDbLine
  8
Contour
 62
7
420
16777215
370
0
 48
1.0
  6
Continuous
 10
20.9000000000000021
 20
-0.03937
 30
0.0
 11
20.9000000000000021
 21
0.03937
 31
0.0
  0
LINE
  5
EE
100
AcDbEntity
100
AcDbLine
  8
Contour
 62
7
420
16777215
370
0
 48
1.0
  6
Continuous
 10
5.1356300000000061
 20
0.0
 30
0.0
 11
5.2143700000000059
 21
0.0
 31
0.0
  0
LINE
  5
EF
100
AcDbEntity
100
AcDbLine
  8
Contour
 62
7
420
16777215
370
0
 48
1.0
  6
Continuous
 10
10.5856300000000054
 20
0.0
 30
0.0
 11
10.6643700000000052
 21
0.0
 31
0.0
  0
LINE
  5
F0
100
AcDbEntity
100
AcDbLine
  8
Contour
 62
7
420
16777215
370
0
 48
1.0
  6
Continuous
 10
16.023130000000009
 20
0.0
 30
0.0
 11
16.1018700000000052
 21
0.0
 31
0.0
  0
LINE
  5
F1
100
AcDbEntity
100
AcDbLine
  8
Contour
 62
7
420
16777215
370
0
 48
1.0
  6
Continuous
 10
21.4606300000000019
 20
0.0
 30
0.0
 11
21.5393700000000017
 21
0.0
 31
0.0
  0
LINE
  5
F2
100
AcDbEntity
100
AcDbLine
  8
Contour
 62
7
420
16777215
370
0
 48
1.0
  6
Continuous
 10
5.175000000000006
 20
-0.03937
 30
0.0
 11
5.175000000000006
 21
0.03937
 31
0.0
  0
LINE
  5
F3
100
AcDbEntity
100
AcDbLine
  8
Contour
 62
7
420
16777215
370
0
 48
1.0
  6
Continuous
 10
10.6250000000000036
 20
-0.03937
 30
0.0
 11
10.6250000000000036
 21
0.03937
 31
0.0
  0
LINE
  5
F4
100
AcDbEntity
100
AcDbLine
  8
Contour
 62
7
420
16777215
370
0
 48
1.0
  6
Continuous
 10
16.0625000000000071
 20
-0.03937
 30
0.0
 11
16.0625000000000071
 21
0.03937
 31
0.0
  0
LINE
  5
F5
100
AcDbEntity
100
AcDbLine
  8
Contour
 62
7
420
16777215
370
0
 48
1.0
  6
Continuous
 10
21.5
 20
-0.03937
 30
0.0
 11
21.5
 21
0.03937
 31
0.0
  0
LINE
  5
F6
100
AcDbEntity
100
AcDbLine
  8
Contour
 62
7
420
16777215
370
0
 48
1.0
  6
Continuous
 10
5.7356300000000049
 20
0.0
 30
0.0
 11
5.8143700000000047
 21
0.0
 31
0.0
  0
LINE
  5
F7
100
AcDbEntity
100
AcDbLine
  8
Contour
 62
7
420
16777215
370
0
 48
1.0
  6
Continuous
 10
11.1856300000000033
 20
0.0
 30
0.0
 11
11.2643700000000031
 21
0.0
 31
0.0
  0
LINE
  5
F8
100
AcDbEntity
100
AcDbLine
  8
Contour
 62
7
420
16777215
370
0
 48
1.0
  6
Continuous
 10
16.6231300000000033
 20
0.0
 30
0.0
 11
16.7018700000000067
 21
0.0
 31
0.0
  0
LINE
  5
F9
100
AcDbEntity
100
AcDbLine
  8
Contour
 62
7
420
16777215
370
0
 48
1.0
  6
Continuous
 10
22.0606299999999997
 20
0.0
 30
0.0
 11
22.1393699999999995
 21
0.0
 31
0.0
  0
LINE
  5
FA
100
AcDbEntity
100
AcDbLine
  8
Contour
 62
7
420
16777215
370
0
 48
1.0
  6
Continuous
 10
5.7750000000000066
 20
-0.03937
 30
0.0
 11
5.7750000000000066
 21
0.03937
 31
0.0
  0
LINE
  5
FB
100
AcDbEntity
100
AcDbLine
  8
Contour
 62
7
420
16777215
370
0
 48
1.0
  6
Continuous
 10
11.225000000000005
 20
-0.03937
 30
0.0
 11
11.225000000000005
 21
0.03937
 31
0.0
  0
LINE
  5
FC
100
AcDbEntity
100
AcDbLine
  8
Contour
 62
7
420
16777215
370
0
 48
1.0
  6
Continuous
 10
16.6625000000000085
 20
-0.03937
 30
0.0
 11
16.6625000000000085
 21
0.03937
 31
0.0
  0
LINE
  5
FD
100
AcDbEntity
100
AcDbLine
  8
Contour
 62
7
420
16777215
370
0
 48
1.0
  6
Continuous
 10
22.1000000000000014
 20
-0.03937
 30
0.0
 11
22.1000000000000014
 21
0.03937
 31
0.0
  0
LINE
  5
FE
100
AcDbEntity
100
AcDbLine
  8
Contour
 62
7
420
16777215
370
0
 48
1.0
  6
Continuous
 10
6.3356300000000063
 20
0.0
 30
0.0
 11
6.4143700000000061
 21
0.0
 31
0.0
  0
LINE
  5
FF
100
AcDbEntity
100
AcDbLine
  8
Contour
 62
7
420
16777215
370
0
 48
1.0
  6
Continuous
 10
11.7856300000000047
 20
0.0
 30
0.0
 11
11.8643700000000045
 21
0.0
 31
0.0
  0
LINE
  5
100
100
AcDbEntity
100
AcDbLine
  8
Contour
 62
7
420
16777215
370
0
 48
1.0
  6
Continuous
 10
17.2231300000000047
 20
0.0
 30
0.0
 11
17.3018700000000081
 21
0.0
 31
0.0
  0
LINE
  5
101
100
AcDbEntity
100
AcDbLine
  8
Contour
 62
7
420
16777215
370
0
 48
1.0
  6
Continuous
 10
22.6606300000000012
 20
0.0
 30
0.0
 11
22.739370000000001
 21
0.0
 31
0.0
  0
LINE
  5
102
100
AcDbEntity
100
AcDbLine
  8
Contour
 62
7
420
16777215
370
0
 48
1.0
  6
Continuous
 10
6.3750000000000062
 20
-0.03937
 30
0.0
 11
6.3750000000000062
 21
0.03937
 31
0.0
  0
LINE
  5
103
100
AcDbEntity
100
AcDbLine
  8
Contour
 62
7
420
16777215
370
0
 48
1.0
  6
Continuous
 10
11.8250000000000046
 20
-0.03937
 30
0.0
 11
11.8250000000000046
 21
0.03937
 31
0.0
  0
LINE
  5
104
100
AcDbEntity
100
AcDbLine
  8
Contour
 62
7
420
16777215
370
0
 48
1.0
  6
Continuous
 10
17.2625000000000028
 20
-0.03937
 30
0.0
 11
17.2625000000000028
 21
0.03937
 31
0.0
  0
LINE
  5
105
100
AcDbEntity
100
AcDbLine
  8
Contour
 62
7
420
16777215
370
0
 48
1.0
  6
Continuous
 10
22.6999999999999993
 20
-0.03937
 30
0.0
 11
22.6999999999999993
 21
0.03937
 31
0.0
  0
LINE
  5
106
100
AcDbEntity
100
AcDbLine
  8
Contour
 62
7
420
16777215
370
0
 48
1.0
  6
Continuous
 10
6.935630000000006
 20
0.0
 30
0.0
 11
7.0143700000000058
 21
0.0
 31
0.0
  0
LINE
  5
107
100
AcDbEntity
100
AcDbLine
  8
Contour
 62
7
420
16777215
370
0
 48
1.0
  6
Continuous
 10
12.3856300000000044
 20
0.0
 30
0.0
 11
12.4643700000000042
 21
0.0
 31
0.0
  0
LINE
  5
108
100
AcDbEntity
100
AcDbLine
  8
Contour
 62
7
420
16777215
370
0
 48
1.0
  6
Continuous
 10
17.8231300000000061
 20
0.0
 30
0.0
 11
17.9018700000000024
 21
0.0
 31
0.0
  0
LINE
  5
109
100
AcDbEntity
100
AcDbLine
  8
Contour
 62
7
420
16777215
370
0
 48
1.0
  6
Continuous
 10
23.2606300000000026
 20
0.0
 30
0.0
 11
23.3393699999999988
 21
0.0
 31
0.0
  0
LINE
  5
10A
100
AcDbEntity
100
AcDbLine
  8
Contour
 62
7
420
16777215
370
0
 48
1.0
  6
Continuous
 10
6.9750000000000059
 20
-0.03937
 30
0.0
 11
6.9750000000000059
 21
0.03937
 31
0.0
  0
LINE
  5
10B
100
AcDbEntity
100
AcDbLine
  8
Contour
 62
7
420
16777215
370
0
 48
1.0
  6
Continuous
 10
12.4250000000000043
 20
-0.03937
 30
0.0
 11
12.4250000000000043
 21
0.03937
 31
0.0
  0
LINE
  5
10C
100
AcDbEntity
100
AcDbLine
  8
Contour
 62
7
420
16777215
370
0
 48
1.0
  6
Continuous
 10
17.8625000000000043
 20
-0.03937
 30
0.0
 11
17.8625000000000043
 21
0.03937
 31
0.0
  0
LINE
  5
10D
100
AcDbEntity
100
AcDbLine
  8
Contour
 62
7
420
16777215
370
0
 48
1.0
  6
Continuous
 10
23.3000000000000007
 20
-0.03937
 30
0.0
 11
23.3000000000000007
 21
0.03937
 31
0.0
  0
LINE
  5
10E
100
AcDbEntity
100
AcDbLine
  8
Contour
 62
7
420
16777215
370
0
 48
1.0
  6
Continuous
 10
7.5356300000000056
 20
0.0
 30
0.0
 11
7.6143700000000054
 21
0.0
 31
0.0
  0
LINE
  5
10F
100
AcDbEntity
100
AcDbLine
  8
Contour
 62
7
420
16777215
370
0
 48
1.0
  6
Continuous
 10
12.985630000000004
 20
0.0
 30
0.0
 11
13.0643700000000038
 21
0.0
 31
0.0
  0
LINE
  5
110
100
AcDbEntity
100
AcDbLine
  8
Contour
 62
7
420
16777215
370
0
 48
1.0
  6
Continuous
 10
18.4231300000000076
 20
0.0
 30
0.0
 11
18.5018700000000038
 21
0.0
 31
0.0
  0
LINE
  5
111
100
AcDbEntity
100
AcDbLine
  8
Contour
 62
7
420
16777215
370
0
 48
1.0
  6
Continuous
 10
23.8606300000000005
 20
0.0
 30
0.0
 11
23.9393700000000003
 21
0.0
 31
0.0
  0
LINE
  5
112
100
AcDbEntity
100
AcDbLine
  8
Contour
 62
7
420
16777215
370
0
 48
1.0
  6
Continuous
 10
7.5750000000000055
 20
-0.03937
 30
0.0
 11
7.5750000000000055
 21
0.03937
 31
0.0
  0
LINE
  5
113
100
AcDbEntity
100
AcDbLine
  8
Contour
 62
7
420
16777215
370
0
 48
1.0
  6
Continuous
 10
13.0250000000000039
 20
-0.03937
 30
0.0
 11
13.0250000000000039
 21
0.03937
 31
0.0
  0
LINE
  5
114
100
AcDbEntity
100
AcDbLine
  8
Contour
 62
7
420
16777215
370
0
 48
1.0
  6
Continuous
 10
18.4625000000000057
 20
-0.03937
 30
0.0
 11
18.4625000000000057
 21
0.03937
 31
0.0
  0
LINE
  5
115
100
AcDbEntity
100
AcDbLine
  8
Contour
 62
7
420
16777215
370
0
 48
1.0
  6
Continuous
 10
23.9000000000000021
 20
-0.03937
 30
0.0
 11
23.9000000000000021
 21
0.03937
 31
0.0
  0
LINE
  5
116
100
AcDbEntity
100
AcDbLine
  8
Contour
 62
7
420
16777215
370
0
 48
1.0
  6
Continuous
 10
8.1356300000000061
 20
0.0
 30
0.0
 11
8.2143700000000059
 21
0.0
 31
0.0
  0
LINE
  5
117
100
AcDbEntity
100
AcDbLine
  8
Contour
 62
7
420
16777215
370
0
 48
1.0
  6
Continuous
 10
13.5856300000000036
 20
0.0
 30
0.0
 11
13.6643700000000052
 21
0.0
 31
0.0
  0
LINE
  5
118
100
AcDbEntity
100
AcDbLine
  8
Contour
 62
7
420
16777215
370
0
 48
1.0
  6
Continuous
 10
19.0231300000000019
 20
0.0
 30
0.0
 11
19.1018700000000052
 21
0.0
 31
0.0
  0
LINE
  5
119
100
AcDbEntity
100
AcDbLine
  8
Contour
 62
7
420
16777215
370
0
 48
1.0
  6
Continuous
 10
24.4606299999999983
 20
0.0
 30
0.0
 11
24.5393700000000017
 21
0.0
 31
0.0
  0
LINE
  5
11A
100
AcDbEntity
100
AcDbLine
  8
Contour
 62
7
420
16777215
370
0
 48
1.0
  6
Continuous
 10
8.1750000000000043
 20
-0.03937
 30
0.0
 11
8.1750000000000043
 21
0.03937
 31
0.0
  0
LINE
  5
11B
100
AcDbEntity
100
AcDbLine
  8
Contour
 62
7
420
16777215
370
0
 48
1.0
  6
Continuous
 10
13.6250000000000036
 20
-0.03937
 30
0.0
 11
13.6250000000000036
 21
0.03937
 31
0.0
  0
LINE
  5
11C
100
AcDbEntity
100
AcDbLine
  8
Contour
 62
7
420
16777215
370
0
 48
1.0
  6
Continuous
 10
19.0625000000000071
 20
-0.03937
 30
0.0
 11
19.0625000000000071
 21
0.03937
 31
0.0
  0
LINE
  5
11D
100
AcDbEntity
100
AcDbLine
  8
Contour
 62
7
420
16777215
370
0
 48
1.0
  6
Continuous
 10
24.5
 20
-0.03937
 30
0.0
 11
24.5
 21
0.03937
 31
0.0
  0
LINE
  5
11E
100
AcDbEntity
100
AcDbLine
  8
Contour
 62
7
420
16777215
370
0
 48
1.0
  6
Continuous
 10
4.2356300000000058
 20
0.125
 30
0.0
 11
4.3143700000000056
 21
0.125
 31
0.0
  0
LINE
  5
11F
100
AcDbEntity
100
AcDbLine
  8
Contour
 62
7
420
16777215
370
0
 48
1.0
  6
Continuous
 10
9.6856300000000033
 20
0.125
 30
0.0
 11
9.7643700000000031
 21
0.125
 31
0.0
  0
LINE
  5
120
100
AcDbEntity
100
AcDbLine
  8
Contour
 62
7
420
16777215
370
0
 48
1.0
  6
Continuous
 10
15.1231300000000051
 20
0.125
 30
0.0
 11
15.2018700000000049
 21
0.125
 31
0.0
  0
LINE
  5
121
100
AcDbEntity
100
AcDbLine
  8
Contour
 62
7
420
16777215
370
0
 48
1.0
  6
Continuous
 10
20.5606299999999997
 20
0.125
 30
0.0
 11
20.6393699999999995
 21
0.125
 31
0.0
  0
LINE
  5
122
100
AcDbEntity
100
AcDbLine
  8
Contour
 62
7
420
16777215
370
0
 48
1.0
  6
Continuous
 10
4.2750000000000057
 20
0.08563
 30
0.0
 11
4.2750000000000057
 21
0.16437
 31
0.0
  0
LINE
  5
123
100
AcDbEntity
100
AcDbLine
  8
Contour
 62
7
420
16777215
370
0
 48
1.0
  6
Continuous
 10
9.725000000000005
 20
0.08563
 30
0.0
 11
9.725000000000005
 21
0.16437
 31
0.0
  0
LINE
  5
124
100
AcDbEntity
100
AcDbLine
  8
Contour
 62
7
420
16777215
370
0
 48
1.0
  6
Continuous
 10
15.1625000000000068
 20
0.08563
 30
0.0
 11
15.1625000000000068
 21
0.16437
 31
0.0
  0
LINE
  5
125
100
AcDbEntity
100
AcDbLine
  8
Contour
 62
7
420
16777215
370
0
 48
1.0
  6
Continuous
 10
20.6000000000000014
 20
0.08563
 30
0.0
 11
20.6000000000000014
 21
0.16437
 31
0.0
  0
LINE
  5
126
100
AcDbEntity
100
AcDbLine
  8
Contour
 62
7
420
16777215
370
0
 48
1.0
  6
Continuous
 10
4.2356300000000058
 20
-0.125
 30
0.0
 11
4.3143700000000056
 21
-0.125
 31
0.0
  0
LINE
  5
127
100
AcDbEntity
100
AcDbLine
  8
Contour
 62
7
420
16777215
370
0
 48
1.0
  6
Continuous
 10
9.6856300000000033
 20
-0.125
 30
0.0
 11
9.7643700000000031
 21
-0.125
 31
0.0
  0
LINE
  5
128
100
AcDbEntity
100
AcDbLine
  8
Contour
 62
7
420
16777215
370
0
 48
1.0
  6
Continuous
 10
15.1231300000000051
 20
-0.125
 30
0.0
 11
15.2018700000000049
 21
-0.125
 31
0.0
  0
LINE
  5
129
100
AcDbEntity
100
AcDbLine
  8
Contour
 62
7
420
16777215
370
0
 48
1.0
  6
Continuous
 10
20.5606299999999997
 20
-0.125
 30
0.0
 11
20.6393699999999995
 21
-0.125
 31
0.0
  0
LINE
  5
12A
100
AcDbEntity
100
AcDbLine
  8
Contour
 62
7
420
16777215
370
0
 48
1.0
  6
Continuous
 10
4.2750000000000057
 20
-0.16437
 30
0.0
 11
4.2750000000000057
 21
-0.08563
 31
0.0
  0
LINE
  5
12B
100
AcDbEntity
100
AcDbLine
  8
Contour
 62
7
420
16777215
370
0
 48
1.0
  6
Continuous
 10
9.725000000000005
 20
-0.16437
 30
0.0
 11
9.725000000000005
 21
-0.08563
 31
0.0
  0
LINE
  5
12C
100
AcDbEntity
100
AcDbLine
  8
Contour
 62
7
420
16777215
370
0
 48
1.0
  6
Continuous
 10
15.1625000000000068
 20
-0.16437
 30
0.0
 11
15.1625000000000068
 21
-0.08563
 31
0.0
  0
LINE
  5
12D
100
AcDbEntity
100
AcDbLine
  8
Contour
 62
7
420
16777215
370
0
 48
1.0
  6
Continuous
 10
20.6000000000000014
 20
-0.16437
 30
0.0
 11
20.6000000000000014
 21
-0.08563
 31
0.0
  0
LINE
  5
12E
100
AcDbEntity
100
AcDbLine
  8
Contour
 62
7
420
16777215
370
0
 48
1.0
  6
Continuous
 10
5.435630000000006
 20
0.125
 30
0.0
 11
5.5143700000000058
 21
0.125
 31
0.0
  0
LINE
  5
12F
100
AcDbEntity
100
AcDbLine
  8
Contour
 62
7
420
16777215
370
0
 48
1.0
  6
Continuous
 10
10.8856300000000044
 20
0.125
 30
0.0
 11
10.9643700000000042
 21
0.125
 31
0.0
  0
LINE
  5
130
100
AcDbEntity
100
AcDbLine
  8
Contour
 62
7
420
16777215
370
0
 48
1.0
  6
Continuous
 10
16.3231300000000061
 20
0.125
 30
0.0
 11
16.4018700000000095
 21
0.125
 31
0.0
  0
LINE
  5
131
100
AcDbEntity
100
AcDbLine
  8
Contour
 62
7
420
16777215
370
0
 48
1.0
  6
Continuous
 10
21.7606300000000026
 20
0.125
 30
0.0
 11
21.8393699999999988
 21
0.125
 31
0.0
  0
LINE
  5
132
100
AcDbEntity
100
AcDbLine
  8
Contour
 62
7
420
16777215
370
0
 48
1.0
  6
Continuous
 10
5.4750000000000059
 20
0.08563
 30
0.0
 11
5.4750000000000059
 21
0.16437
 31
0.0
  0
LINE
  5
133
100
AcDbEntity
100
AcDbLine
  8
Contour
 62
7
420
16777215
370
0
 48
1.0
  6
Continuous
 10
10.9250000000000043
 20
0.08563
 30
0.0
 11
10.9250000000000043
 21
0.16437
 31
0.0
  0
LINE
  5
134
100
AcDbEntity
100
AcDbLine
  8
Contour
 62
7
420
16777215
370
0
 48
1.0
  6
Continuous
 10
16.3625000000000043
 20
0.08563
 30
0.0
 11
16.3625000000000043
 21
0.16437
 31
0.0
  0
LINE
  5
135
100
AcDbEntity
100
AcDbLine
  8
Contour
 62
7
420
16777215
370
0
 48
1.0
  6
Continuous
 10
21.8000000000000007
 20
0.08563
 30
0.0
 11
21.8000000000000007
 21
0.16437
 31
0.0
  0
LINE
  5
136
100
AcDbEntity
100
AcDbLine
  8
Contour
 62
7
420
16777215
370
0
 48
1.0
  6
Continuous
 10
5.435630000000006
 20
-0.125
 30
0.0
 11
5.5143700000000058
 21
-0.125
 31
0.0
  0
LINE
  5
137
100
AcDbEntity
100
AcDbLine
  8
Contour
 62
7
420
16777215
370
0
 48
1.0
  6
Continuous
 10
10.8856300000000044
 20
-0.125
 30
0.0
 11
10.9643700000000042
 21
-0.125
 31
0.0
  0
LINE
  5
138
100
AcDbEntity
100
AcDbLine
  8
Contour
 62
7
420
16777215
370
0
 48
1.0
  6
Continuous
 10
16.3231300000000061
 20
-0.125
 30
0.0
 11
16.4018700000000095
 21
-0.125
 31
0.0
  0
LINE
  5
139
100
AcDbEntity
100
AcDbLine
  8
Contour
 62
7
420
16777215
370
0
 48
1.0
  6
Continuous
 10
21.7606300000000026
 20
-0.125
 30
0.0
 11
21.8393699999999988
 21
-0.125
 31
0.0
  0
LINE
  5
13A
100
AcDbEntity
100
AcDbLine
  8
Contour
 62
7
420
16777215
370
0
 48
1.0
  6
Continuous
 10
5.4750000000000059
 20
-0.16437
 30
0.0
 11
5.4750000000000059
 21
-0.08563
 31
0.0
  0
LINE
  5
13B
100
AcDbEntity
100
AcDbLine
  8
Contour
 62
7
420
16777215
370
0
 48
1.0
  6
Continuous
 10
10.9250000000000043
 20
-0.16437
 30
0.0
 11
10.9250000000000043
 21
-0.08563
 31
0.0
  0
LINE
  5
13C
100
AcDbEntity
100
AcDbLine
  8
Contour
 62
7
420
16777215
370
0
 48
1.0
  6
Continuous
 10
16.3625000000000043
 20
-0.16437
 30
0.0
 11
16.3625000000000043
 21
-0.08563
 31
0.0
  0
LINE
  5
13D
100
AcDbEntity
100
AcDbLine
  8
Contour
 62
7
420
16777215
370
0
 48
1.0
  6
Continuous
 10
21.8000000000000007
 20
-0.16437
 30
0.0
 11
21.8000000000000007
 21
-0.08563
 31
0.0
  0
LINE
  5
13E
100
AcDbEntity
100
AcDbLine
  8
Contour
 62
7
420
16777215
370
0
 48
1.0
  6
Continuous
 10
6.6356300000000052
 20
0.125
 30
0.0
 11
6.7143700000000051
 21
0.125
 31
0.0
  0
LINE
  5
13F
100
AcDbEntity
100
AcDbLine
  8
Contour
 62
7
420
16777215
370
0
 48
1.0
  6
Continuous
 10
12.0856300000000036
 20
0.125
 30
0.0
 11
12.1643700000000035
 21
0.125
 31
0.0
  0
LINE
  5
140
100
AcDbEntity
100
AcDbLine
  8
Contour
 62
7
420
16777215
370
0
 48
1.0
  6
Continuous
 10
17.5231300000000019
 20
0.125
 30
0.0
 11
17.6018700000000052
 21
0.125
 31
0.0
  0
LINE
  5
141
100
AcDbEntity
100
AcDbLine
  8
Contour
 62
7
420
16777215
370
0
 48
1.0
  6
Continuous
 10
22.9606299999999983
 20
0.125
 30
0.0
 11
23.0393700000000017
 21
0.125
 31
0.0
  0
LINE
  5
142
100
AcDbEntity
100
AcDbLine
  8
Contour
 62
7
420
16777215
370
0
 48
1.0
  6
Continuous
 10
6.6750000000000052
 20
0.08563
 30
0.0
 11
6.6750000000000052
 21
0.16437
 31
0.0
  0
LINE
  5
143
100
AcDbEntity
100
AcDbLine
  8
Contour
 62
7
420
16777215
370
0
 48
1.0
  6
Continuous
 10
12.1250000000000036
 20
0.08563
 30
0.0
 11
12.1250000000000036
 21
0.16437
 31
0.0
  0
LINE
  5
144
100
AcDbEntity
100
AcDbLine
  8
Contour
 62
7
420
16777215
370
0
 48
1.0
  6
Continuous
 10
17.5625000000000071
 20
0.08563
 30
0.0
 11
17.5625000000000071
 21
0.16437
 31
0.0
  0
LINE
  5
145
100
AcDbEntity
100
AcDbLine
  8
Contour
 62
7
420
16777215
370
0
 48
1.0
  6
Continuous
 10
23.0
 20
0.08563
 30
0.0
 11
23.0
 21
0.16437
 31
0.0
  0
LINE
  5
146
100
AcDbEntity
100
AcDbLine
  8
Contour
 62
7
420
16777215
370
0
 48
1.0
  6
Continuous
 10
6.6356300000000052
 20
-0.125
 30
0.0
 11
6.7143700000000051
 21
-0.125
 31
0.0
  0
LINE
  5
147
100
AcDbEntity
100
AcDbLine
  8
Contour
 62
7
420
16777215
370
0
 48
1.0
  6
Continuous
 10
12.0856300000000036
 20
-0.125
 30
0.0
 11
12.1643700000000035
 21
-0.125
 31
0.0
  0
LINE
  5
148
100
AcDbEntity
100
AcDbLine
  8
Contour
 62
7
420
16777215
370
0
 48
1.0
  6
Continuous
 10
17.5231300000000019
 20
-0.125
 30
0.0
 11
17.6018700000000052
 21
-0.125
 31
0.0
  0
LINE
  5
149
100
AcDbEntity
100
AcDbLine
  8
Contour
 62
7
420
16777215
370
0
 48
1.0
  6
Continuous
 10
22.9606299999999983
 20
-0.125
 30
0.0
 11
23.0393700000000017
 21
-0.125
 31
0.0
  0
LINE
  5
14A
100
AcDbEntity
100
AcDbLine
  8
Contour
 62
7
420
16777215
370
0
 48
1.0
  6
Continuous
 10
6.6750000000000052
 20
-0.16437
 30
0.0
 11
6.6750000000000052
 21
-0.08563
 31
0.0
  0
LINE
  5
14B
100
AcDbEntity
100
AcDbLine
  8
Contour
 62
7
420
16777215
370
0
 48
1.0
  6
Continuous
 10
12.1250000000000036
 20
-0.16437
 30
0.0
 11
12.1250000000000036
 21
-0.08563
 31
0.0
  0
LINE
  5
14C
100
AcDbEntity
100
AcDbLine
  8
Contour
 62
7
420
16777215
370
0
 48
1.0
  6
Continuous
 10
17.5625000000000071
 20
-0.16437
 30
0.0
 11
17.5625000000000071
 21
-0.08563
 31
0.0
  0
LINE
  5
14D
100
AcDbEntity
100
AcDbLine
  8
Contour
 62
7
420
16777215
370
0
 48
1.0
  6
Continuous
 10
23.0
 20
-0.16437
 30
0.0
 11
23.0
 21
-0.08563
 31
0.0
  0
LINE
  5
14E
100
AcDbEntity
100
AcDbLine
  8
Contour
 62
7
420
16777215
370
0
 48
1.0
  6
Continuous
 10
7.8356300000000063
 20
0.125
 30
0.0
 11
7.9143700000000061
 21
0.125
 31
0.0
  0
LINE
  5
14F
100
AcDbEntity
100
AcDbLine
  8
Contour
 62
7
420
16777215
370
0
 48
1.0
  6
Continuous
 10
13.2856300000000047
 20
0.125
 30
0.0
 11
13.3643700000000045
 21
0.125
 31
0.0
  0
LINE
  5
150
100
AcDbEntity
100
AcDbLine
  8
Contour
 62
7
420
16777215
370
0
 48
1.0
  6
Continuous
 10
18.7231300000000047
 20
0.125
 30
0.0
 11
18.8018700000000081
 21
0.125
 31
0.0
  0
LINE
  5
151
100
AcDbEntity
100
AcDbLine
  8
Contour
 62
7
420
16777215
370
0
 48
1.0
  6
Continuous
 10
24.1606300000000012
 20
0.125
 30
0.0
 11
24.239370000000001
 21
0.125
 31
0.0
  0
LINE
  5
152
100
AcDbEntity
100
AcDbLine
  8
Contour
 62
7
420
16777215
370
0
 48
1.0
  6
Continuous
 10
7.8750000000000044
 20
0.08563
 30
0.0
 11
7.8750000000000044
 21
0.16437
 31
0.0
  0
LINE
  5
153
100
AcDbEntity
100
AcDbLine
  8
Contour
 62
7
420
16777215
370
0
 48
1.0
  6
Continuous
 10
13.3250000000000028
 20
0.08563
 30
0.0
 11
13.3250000000000028
 21
0.16437
 31
0.0
  0
LINE
  5
154
100
AcDbEntity
100
AcDbLine
  8
Contour
 62
7
420
16777215
370
0
 48
1.0
  6
Continuous
 10
18.7625000000000028
 20
0.08563
 30
0.0
 11
18.7625000000000028
 21
0.16437
 31
0.0
  0
LINE
  5
155
100
AcDbEntity
100
AcDbLine
  8
Contour
 62
7
420
16777215
370
0
 48
1.0
  6
Continuous
 10
24.1999999999999993
 20
0.08563
 30
0.0
 11
24.1999999999999993
 21
0.16437
 31
0.0
  0
LINE
  5
156
100
AcDbEntity
100
AcDbLine
  8
Contour
 62
7
420
16777215
370
0
 48
1.0
  6
Continuous
 10
7.8356300000000063
 20
-0.125
 30
0.0
 11
7.9143700000000061
 21
-0.125
 31
0.0
  0
LINE
  5
157
100
AcDbEntity
100
AcDbLine
  8
Contour
 62
7
420
16777215
370
0
 48
1.0
  6
Continuous
 10
13.2856300000000047
 20
-0.125
 30
0.0
 11
13.3643700000000045
 21
-0.125
 31
0.0
  0
LINE
  5
158
100
AcDbEntity
100
AcDbLine
  8
Contour
 62
7
420
16777215
370
0
 48
1.0
  6
Continuous
 10
18.7231300000000047
 20
-0.125
 30
0.0
 11
18.8018700000000081
 21
-0.125
 31
0.0
  0
LINE
  5
159
100
AcDbEntity
100
AcDbLine
  8
Contour
 62
7
420
16777215
370
0
 48
1.0
  6
Continuous
 10
24.1606300000000012
 20
-0.125
 30
0.0
 11
24.239370000000001
 21
-0.125
 31
0.0
  0
LINE
  5
15A
100
AcDbEntity
100
AcDbLine
  8
Contour
 62
7
420
16777215
370
0
 48
1.0
  6
Continuous
 10
7.8750000000000044
 20
-0.16437
 30
0.0
 11
7.8750000000000044
 21
-0.08563
 31
0.0
  0
LINE
  5
15B
100
AcDbEntity
100
AcDbLine
  8
Contour
 62
7
420
16777215
370
0
 48
1.0
  6
Continuous
 10
13.3250000000000028
 20
-0.16437
 30
0.0
 11
13.3250000000000028
 21
-0.08563
 31
0.0
  0
LINE
  5
15C
100
AcDbEntity
100
AcDbLine
  8
Contour
 62
7
420
16777215
370
0
 48
1.0
  6
Continuous
 10
18.7625000000000028
 20
-0.16437
 30
0.0
 11
18.7625000000000028
 21
-0.08563
 31
0.0
  0
LINE
  5
15D
100
AcDbEntity
100
AcDbLine
  8
Contour
 62
7
420
16777215
370
0
 48
1.0
  6
Continuous
 10
24.1999999999999993
 20
-0.16437
 30
0.0
 11
24.1999999999999993
 21
-0.08563
 31
0.0
  0
LINE
  5
15E
100
AcDbEntity
100
AcDbLine
  8
0
 62
256
370
-1
 48
1.0
  6
BYLAYER
 10
0.0
 20
-0.4375
 30
0.0
 11
25.4375
 21
-0.4375
 31
0.0
  0
LINE
  5
15F
100
AcDbEntity
100
AcDbLine
  8
0
 62
256
370
-1
 48
1.0
  6
BYLAYER
 10
25.4375
 20
-0.4375
 30
0.0
 11
25.4375
 21
0.4375
 31
0.0
  0
LINE
  5
160
100
AcDbEntity
100
AcDbLine
  8
0
 62
256
370
-1
 48
1.0
  6
BYLAYER
 10
25.4375
 20
0.4375
 30
0.0
 11
0.0
 21
0.4375
 31
0.0
  0
LINE
  5
161
100
AcDbEntity
100
AcDbLine
  8
0
 62
256
370
-1
 48
1.0
  6
BYLAYER
 10
0.0
 20
0.5625
 30
0.0
 11
0.0
 21
-0.3125
 31
0.0
  0
DIMENSION
  5
162
100
AcDbEntity
  8
0
 62
256
370
-1
 48
1.0
  6
BYLAYER
100
AcDbDimension
 10
0.0
 20
2.5
 30
0.0
 11
1.4986742034943474
 21
2.6875
 31
0.0
 70
0
 71
8
 72
2
 41
1.0
 42
0.0
  1

  3
Standard
100
AcDbAlignedDimension
 13
0.0
 23
0.0
 33
0.0
 14
0.9374999999999999
 24
0.0
 34
0.0
 50
0.0
100
AcDbRotatedDimension
1001
ACAD
1000
DSTYLE
1002
{
1070
144
1040
1.0
1070
40
1040
1.0
1002
}
  0
DIMENSION
  5
163
100
AcDbEntity
  8
0
 62
256
370
-1
 48
1.0
  6
BYLAYER
100
AcDbDimension
 10
0.0
 20
1.875
 30
0.0
 11
1.9875000000000029
 21
2.0625
 31
0.0
 70
0
 71
8
 72
2
 41
1.0
 42
0.0
  1

  3
Standard
100
AcDbAlignedDimension
 13
0.0
 23
0.0
 33
0.0
 14
3.9750000000000059
 24
0.0
 34
0.0
 50
0.0
100
AcDbRotatedDimension
1001
ACAD
1000
DSTYLE
1002
{
1070
144
1040
1.0
1070
40
1040
1.0
1002
}
  0
DIMENSION
  5
164
100
AcDbEntity
  8
0
 62
256
370
-1
 48
1.0
  6
BYLAYER
100
AcDbDimension
 10
0.0
 20
1.25
 30
0.0
 11
4.7125000000000021
 21
1.4375
 31
0.0
 70
0
 71
8
 72
2
 41
1.0
 42
0.0
  1

  3
Standard
100
AcDbAlignedDimension
 13
0.0
 23
0.0
 33
0.0
 14
9.4250000000000043
 24
0.0
 34
0.0
 50
0.0
100
AcDbRotatedDimension
1001
ACAD
1000
DSTYLE
1002
{
1070
144
1040
1.0
1070
40
1040
1.0
1002
}
  0
DIMENSION
  5
165
100
AcDbEntity
  8
0
 62
256
370
-1
 48
1.0
  6
BYLAYER
100
AcDbDimension
 10
0.0
 20
-1.25
 30
0.0
 11
7.431250000000003
 21
-1.0625
 31
0.0
 70
0
 71
8
 72
2
 41
1.0
 42
0.0
  1

  3
Standard
100
AcDbAlignedDimension
 13
0.0
 23
0.0
 33
0.0
 14
14.862500000000006
 24
0.0
 34
0.0
 50
0.0
100
AcDbRotatedDimension
1001
ACAD
1000
DSTYLE
1002
{
1070
144
1040
1.0
1070
40
1040
1.0
1002
}
  0
DIMENSION
  5
166
100
AcDbEntity
  8
0
 62
256
370
-1
 48
1.0
  6
BYLAYER
100
AcDbDimension
 10
0.0
 20
-1.875
 30
0.0
 11
10.1500000000000021
 21
-1.6875
 31
0.0
 70
0
 71
8
 72
2
 41
1.0
 42
0.0
  1

  3
Standard
100
AcDbAlignedDimension
 13
0.0
 23
0.0
 33
0.0
 14
20.3000000000000043
 24
0.0
 34
0.0
 50
0.0
100
AcDbRotatedDimension
1001
ACAD
1000
DSTYLE
1002
{
1070
144
1040
1.0
1070
40
1040
1.0
1002
}
  0
DIMENSION
  5
167
100
AcDbEntity
  8
0
 62
256
370
-1
 48
1.0
  6
BYLAYER
100
AcDbDimension
 10
0.0
 20
-2.9375
 30
0.0
 11
12.71875
 21
-2.75
 31
0.0
 70
0
 71
8
 72
2
 41
1.0
 42
0.0
  1

  3
Standard
100
AcDbAlignedDimension
 13
0.0
 23
-0.4375
 33
0.0
 14
25.4375
 24
-0.4375
 34
0.0
 50
0.0
100
AcDbRotatedDimension
1001
ACAD
1000
DSTYLE
1002
{
1070
144
1040
1.0
1070
40
1040
1.0
1002
}
  0
ENDSEC
  0
SECTION
  2
OBJECTS
  0
DICTIONARY
  5
C
100
AcDbDictionary
280
0
281
1
  3
ACAD_GROUP
350
D
  3
ACAD_LAYOUT
350
1A
  3
ACAD_MLINESTYLE
350
17
  3
ACAD_PLOTSETTINGS
350
19
  3
ACAD_PLOTSTYLENAME
350
E
  3
AcDbVariableDictionary
350
168
  3
QCAD_OBJECTS
350
169
  0
DICTIONARY
  5
D
100
AcDbDictionary
280
0
281
1
  0
ACDBDICTIONARYWDFLT
  5
E
100
AcDbDictionary
281
1
  3
Normal
350
F
100
AcDbDictionaryWithDefault
340
F
  0
ACDBPLACEHOLDER
  5
F
  0
DICTIONARY
  5
17
100
AcDbDictionary
280
0
281
1
  3
Standard
350
18
  0
MLINESTYLE
  5
18
100
AcDbMlineStyle
  2
STANDARD
 70
0
  3

 62
256
 51
90.0
 52
90.0
 71
2
 49
0.5
 62
256
  6
BYLAYER
 49
-0.5
 62
256
  6
BYLAYER
  0
DICTIONARY
  5
19
100
AcDbDictionary
280
0
281
1
  0
DICTIONARY
  5
1A
100
AcDbDictionary
281
1
  3
Layout1
350
1E
  3
Layout2
350
26
  3
Model
350
22
  0
LAYOUT
  5
1E
100
AcDbPlotSettings
  1

  2
none_device
  4

  6

 40
0.0
 41
0.0
 42
0.0
 43
0.0
 44
0.0
 45
0.0
 46
0.0
 47
0.0
 48
0.0
 49
0.0
140
0.0
141
0.0
142
1.0
143
1.0
 70
688
 72
0
 73
0
 74
5
  7

 75
16
147
1.0
148
0.0
149
0.0
100
AcDbLayout
  1
Layout1
 70
1
 71
1
 10
0.0
 20
0.0
 11
420.0
 21
297.0
 12
0.0
 22
0.0
 32
0.0
 14
100000000000000000000.0
 24
100000000000000000000.0
 34
100000000000000000000.0
 15
-100000000000000000000.0
 25
-100000000000000000000.0
 35
-100000000000000000000.0
146
0.0
 13
0.0
 23
0.0
 33
0.0
 16
1.0
 26
0.0
 36
0.0
 17
0.0
 27
1.0
 37
0.0
 76
0
330
1B
  0
LAYOUT
  5
22
100
AcDbPlotSettings
  1

  2
none_device
  4

  6

 40
0.0
 41
0.0
 42
0.0
 43
0.0
 44
0.0
 45
0.0
 46
0.0
 47
0.0
 48
0.0
 49
0.0
140
0.0
141
0.0
142
1.0
143
1.0
 70
1712
 72
0
 73
0
 74
0
  7

 75
0
147
1.0
148
0.0
149
0.0
100
AcDbLayout
  1
Model
 70
1
 71
0
 10
0.0
 20
0.0
 11
12.0
 21
9.0
 12
0.0
 22
0.0
 32
0.0
 14
0.0
 24
0.0
 34
0.0
 15
0.0
 25
0.0
 35
0.0
146
0.0
 13
0.0
 23
0.0
 33
0.0
 16
1.0
 26
0.0
 36
0.0
 17
0.0
 27
1.0
 37
0.0
 76
0
330
1F
  0
LAYOUT
  5
26
100
AcDbPlotSettings
  1

  2
none_device
  4

  6

 40
0.0
 41
0.0
 42
0.0
 43
0.0
 44
0.0
 45
0.0
 46
0.0
 47
0.0
 48
0.0
 49
0.0
140
0.0
141
0.0
142
1.0
143
1.0
 70
688
 72
0
 73
0
 74
5
  7

 75
16
147
1.0
148
0.0
149
0.0
100
AcDbLayout
  1
Layout2
 70
1
 71
2
 10
0.0
 20
0.0
 11
12.0
 21
9.0
 12
0.0
 22
0.0
 32
0.0
 14
0.0
 24
0.0
 34
0.0
 15
0.0
 25
0.0
 35
0.0
146
0.0
 13
0.0
 23
0.0
 33
0.0
 16
1.0
 26
0.0
 36
0.0
 17
0.0
 27
1.0
 37
0.0
 76
0
330
23
  0
DICTIONARY
  5
168
100
AcDbDictionary
281
1
  3
DIMASSOC
350
16B
  3
HIDETEXT
350
16A
  0
DICTIONARYVAR
  5
16A
100
DictionaryVariables
280
0
  1
2
  0
DICTIONARYVAR
  5
16B
100
DictionaryVariables
280
0
  1
1
  0
DICTIONARY
  5
169
100
AcDbDictionary
281
1
  3
ColorSettings/BackgroundColor
350
16C
  3
ColorSettings/ColorMode
350
16D
  3
DimensionSettings/AngularFormat
350
16E
  3
DimensionSettings/AngularPrecision
350
16F
  3
DimensionSettings/DimensionFont
350
170
  3
DimensionSettings/KeepProportions
350
171
  3
DimensionSettings/LinearFormat
350
172
  3
DimensionSettings/LinearPrecision
350
173
  3
Grid/DisplayGrid00
350
174
  3
Grid/DisplayGrid01
350
175
  3
Grid/DisplayGrid02
350
176
  3
Grid/DisplayGrid03
350
177
  3
Grid/GridSpacingX00
350
178
  3
Grid/GridSpacingX01
350
179
  3
Grid/GridSpacingX02
350
17A
  3
Grid/GridSpacingX03
350
17B
  3
Grid/GridSpacingY00
350
17C
  3
Grid/GridSpacingY01
350
17D
  3
Grid/GridSpacingY02
350
17E
  3
Grid/GridSpacingY03
350
17F
  3
Grid/IsometricGrid00
350
180
  3
Grid/IsometricGrid01
350
181
  3
Grid/IsometricGrid02
350
182
  3
Grid/IsometricGrid03
350
183
  3
Grid/IsometricProjection00
350
184
  3
Grid/IsometricProjection01
350
185
  3
Grid/IsometricProjection02
350
186
  3
Grid/IsometricProjection03
350
187
  3
Grid/MetaGridSpacingX00
350
188
  3
Grid/MetaGridSpacingX01
350
189
  3
Grid/MetaGridSpacingX02
350
18A
  3
Grid/MetaGridSpacingX03
350
18B
  3
Grid/MetaGridSpacingY00
350
18C
  3
Grid/MetaGridSpacingY01
350
18D
  3
Grid/MetaGridSpacingY02
350
18E
  3
Grid/MetaGridSpacingY03
350
18F
  3
MultiPageSettings/Columns
350
190
  3
MultiPageSettings/GlueMarginsBottom
350
191
  3
MultiPageSettings/GlueMarginsLeft
350
192
  3
MultiPageSettings/GlueMarginsRight
350
193
  3
MultiPageSettings/GlueMarginsTop
350
194
  3
MultiPageSettings/PrintCropMarks
350
195
  3
MultiPageSettings/Rows
350
196
  3
PageSettings/OffsetX
350
197
  3
PageSettings/OffsetY
350
198
  3
PageSettings/PageOrientation
350
199
  3
PageSettings/PaperHeight
350
19A
  3
PageSettings/PaperSizeName
350
19B
  3
PageSettings/PaperWidth
350
19C
  3
PageSettings/Scale
350
19D
  3
PageSettings/ShowPaperBorders
350
19E
  3
QCADVersion
350
19F
  3
UnitSettings/PaperUnit
350
1A0
  3
ViewportCenter
350
1A1
  3
ViewportHeight
350
1A2
  3
ViewportWidth
350
1A3
  0
XRECORD
  5
16C
330
169
100
AcDbXrecord
280
1
1000
White
  0
XRECORD
  5
16D
330
169
100
AcDbXrecord
280
1
1000
FullColor
  0
XRECORD
  5
16E
330
169
100
AcDbXrecord
280
1
 90
0
  0
XRECORD
  5
16F
330
169
100
AcDbXrecord
280
1
 90
0
  0
XRECORD
  5
170
330
169
100
AcDbXrecord
280
1
1000
Adobe Arabic
  0
XRECORD
  5
171
330
169
100
AcDbXrecord
280
1
290
1
  0
XRECORD
  5
172
330
169
100
AcDbXrecord
280
1
 90
2
  0
XRECORD
  5
173
330
169
100
AcDbXrecord
280
1
 90
4
  0
XRECORD
  5
174
330
169
100
AcDbXrecord
280
1
290
1
  0
XRECORD
  5
175
330
169
100
AcDbXrecord
280
1
290
1
  0
XRECORD
  5
176
330
169
100
AcDbXrecord
280
1
290
1
  0
XRECORD
  5
177
330
169
100
AcDbXrecord
280
1
290
1
  0
XRECORD
  5
178
330
169
100
AcDbXrecord
280
1
1000
0.025
  0
XRECORD
  5
179
330
169
100
AcDbXrecord
280
1
1000
0.025
  0
XRECORD
  5
17A
330
169
100
AcDbXrecord
280
1
1000
0.025
  0
XRECORD
  5
17B
330
169
100
AcDbXrecord
280
1
1000
0.025
  0
XRECORD
  5
17C
330
169
100
AcDbXrecord
280
1
1000
0.025
  0
XRECORD
  5
17D
330
169
100
AcDbXrecord
280
1
1000
0.025
  0
XRECORD
  5
17E
330
169
100
AcDbXrecord
280
1
1000
0.025
  0
XRECORD
  5
17F
330
169
100
AcDbXrecord
280
1
1000
0.025
  0
XRECORD
  5
180
330
169
100
AcDbXrecord
280
1
290
0
  0
XRECORD
  5
181
330
169
100
AcDbXrecord
280
1
290
0
  0
XRECORD
  5
182
330
169
100
AcDbXrecord
280
1
290
0
  0
XRECORD
  5
183
330
169
100
AcDbXrecord
280
1
290
0
  0
XRECORD
  5
184
330
169
100
AcDbXrecord
280
1
 90
0
  0
XRECORD
  5
185
330
169
100
AcDbXrecord
280
1
 90
0
  0
XRECORD
  5
186
330
169
100
AcDbXrecord
280
1
 90
0
  0
XRECORD
  5
187
330
169
100
AcDbXrecord
280
1
 90
0
  0
XRECORD
  5
188
330
169
100
AcDbXrecord
280
1
1000
auto
  0
XRECORD
  5
189
330
169
100
AcDbXrecord
280
1
1000
auto
  0
XRECORD
  5
18A
330
169
100
AcDbXrecord
280
1
1000
auto
  0
XRECORD
  5
18B
330
169
100
AcDbXrecord
280
1
1000
auto
  0
XRECORD
  5
18C
330
169
100
AcDbXrecord
280
1
1000
auto
  0
XRECORD
  5
18D
330
169
100
AcDbXrecord
280
1
1000
auto
  0
XRECORD
  5
18E
330
169
100
AcDbXrecord
280
1
1000
auto
  0
XRECORD
  5
18F
330
169
100
AcDbXrecord
280
1
1000
auto
  0
XRECORD
  5
190
330
169
100
AcDbXrecord
280
1
 90
1
  0
XRECORD
  5
191
330
169
100
AcDbXrecord
280
1
 40
10.0
  0
XRECORD
  5
192
330
169
100
AcDbXrecord
280
1
 40
10.0
  0
XRECORD
  5
193
330
169
100
AcDbXrecord
280
1
 40
10.0
  0
XRECORD
  5
194
330
169
100
AcDbXrecord
280
1
 40
10.0
  0
XRECORD
  5
195
330
169
100
AcDbXrecord
280
1
290
0
  0
XRECORD
  5
196
330
169
100
AcDbXrecord
280
1
 90
1
  0
XRECORD
  5
197
330
169
100
AcDbXrecord
280
1
1000
-2.5
  0
XRECORD
  5
198
330
169
100
AcDbXrecord
280
1
1000
-10
  0
XRECORD
  5
199
330
169
100
AcDbXrecord
280
1
1000
Landscape
  0
XRECORD
  5
19A
330
169
100
AcDbXrecord
280
1
1000
11.693
  0
XRECORD
  5
19B
330
169
100
AcDbXrecord
280
1
1000
ISO A4
  0
XRECORD
  5
19C
330
169
100
AcDbXrecord
280
1
1000
8.268
  0
XRECORD
  5
19D
330
169
100
AcDbXrecord
280
1
1000
1" = 2.5"
  0
XRECORD
  5
19E
330
169
100
AcDbXrecord
280
1
290
1
  0
XRECORD
  5
19F
330
169
100
AcDbXrecord
280
1
1000
3.15.5
  0
XRECORD
  5
1A0
330
169
100
AcDbXrecord
280
1
 90
1
  0
XRECORD
  5
1A2
330
169
100
AcDbXrecord
280
1
 40
7.225331197551367
  0
XRECORD
  5
1A3
330
169
100
AcDbXrecord
280
1
 40
12.0227957292588634
  0
ENDSEC
  0
EOF
