  0
SECTION
  2
HEADER
  9
$MEASUREMENT
  70
  0
  9
$INSUNITS
  70
  1
  0
ENDSEC
  0
SECTION
  2
TABLES
  0
TABLE
  2
LTYPE
 70
     1
  0
LTYPE
  2
CONTINUOUS
 70
    64
  3
Ausgezogene Linie
 72
    65
 73
     0
 40
0.0
  0
ENDTAB
  0
TABLE
  2
LAYER
 70
     3
  0
LAYER
  2
Contour
 70
    64
 62
     7
  6
CONTINUOUS
  0
LAYER
  2
Engraving
 70
    64
 62
     7
  6
CONTINUOUS
  0
LAYER
  2
Reference_points
 70
    64
 62
     1
  6
CONTINUOUS
  0
ENDTAB
  0
TABLE
  2
STYLE
 70
     1
  0
STYLE
  2
TXT
 70
    64
 40
0.0
 41
1.0
 50
0.0
 71
     0
 42
3.500000
  3
TXT
  0
ENDTAB
  0
ENDSEC
  0
SECTION
  2
BLOCKS
  0
ENDSEC
  0
SECTION
  2
ENTITIES
  0
LINE
  8
Contour
 62
   7
 39
0.004
  6
CONTINUOUS
 10
5.10000
 20
0.70000
 30
 0
 11
0.00000
 21
0.70000
  0
LINE
  8
Contour
 62
   7
 39
0.004
  6
CONTINUOUS
 10
0.00000
 20
0.70000
 30
 0
 11
0.00000
 21
0.70000
  0
LINE
  8
Contour
 62
   7
 39
0.004
  6
CONTINUOUS
 10
0.00000
 20
0.70000
 30
 0
 11
0.00000
 21
0.00000
  0
LINE
  8
Contour
 62
   7
 39
0.004
  6
CONTINUOUS
 10
0.00000
 20
0.00000
 30
 0
 11
0.00000
 21
0.00000
  0
LINE
  8
Contour
 62
   7
 39
0.004
  6
CONTINUOUS
 10
0.00000
 20
0.00000
 30
 0
 11
5.10000
 21
0.00000
  0
LINE
  8
Contour
 62
   7
 39
0.004
  6
CONTINUOUS
 10
5.10000
 20
0.00000
 30
 0
 11
5.10000
 21
0.00000
  0
LINE
  8
Contour
 62
   7
 39
0.004
  6
CONTINUOUS
 10
5.10000
 20
0.00000
 30
 0
 11
5.10000
 21
0.70000
  0
LINE
  8
Contour
 62
   7
 39
0.004
  6
CONTINUOUS
 10
5.10000
 20
0.70000
 30
 0
 11
5.10000
 21
0.70000
  0
CIRCLE
  8
Contour
 62
   7
 39
0.004
  6
CONTINUOUS
 10
0.45000
 20
0.35000
 30
 0
 40
0.12008
  0
CIRCLE
  8
Contour
 62
   7
 39
0.004
  6
CONTINUOUS
 10
1.05000
 20
0.35000
 30
 0
 40
0.12008
  0
CIRCLE
  8
Contour
 62
   7
 39
0.004
  6
CONTINUOUS
 10
1.65000
 20
0.35000
 30
 0
 40
0.12008
  0
CIRCLE
  8
Contour
 62
   7
 39
0.004
  6
CONTINUOUS
 10
2.25000
 20
0.35000
 30
 0
 40
0.12008
  0
CIRCLE
  8
Contour
 62
   7
 39
0.004
  6
CONTINUOUS
 10
2.85000
 20
0.35000
 30
 0
 40
0.12008
  0
CIRCLE
  8
Contour
 62
   7
 39
0.004
  6
CONTINUOUS
 10
3.45000
 20
0.35000
 30
 0
 40
0.12008
  0
CIRCLE
  8
Contour
 62
   7
 39
0.004
  6
CONTINUOUS
 10
4.05000
 20
0.35000
 30
 0
 40
0.12008
  0
CIRCLE
  8
Contour
 62
   7
 39
0.004
  6
CONTINUOUS
 10
4.65000
 20
0.35000
 30
 0
 40
0.12008
  0
CIRCLE
  8
Contour
 62
   7
 39
0.004
  6
CONTINUOUS
 10
0.75000
 20
0.47500
 30
 0
 40
0.06102
  0
CIRCLE
  8
Contour
 62
   7
 39
0.004
  6
CONTINUOUS
 10
0.75000
 20
0.22500
 30
 0
 40
0.06102
  0
CIRCLE
  8
Contour
 62
   7
 39
0.004
  6
CONTINUOUS
 10
1.95000
 20
0.47500
 30
 0
 40
0.06102
  0
CIRCLE
  8
Contour
 62
   7
 39
0.004
  6
CONTINUOUS
 10
1.95000
 20
0.22500
 30
 0
 40
0.06102
  0
CIRCLE
  8
Contour
 62
   7
 39
0.004
  6
CONTINUOUS
 10
3.15000
 20
0.47500
 30
 0
 40
0.06102
  0
CIRCLE
  8
Contour
 62
   7
 39
0.004
  6
CONTINUOUS
 10
3.15000
 20
0.22500
 30
 0
 40
0.06102
  0
CIRCLE
  8
Contour
 62
   7
 39
0.004
  6
CONTINUOUS
 10
4.35000
 20
0.47500
 30
 0
 40
0.06102
  0
CIRCLE
  8
Contour
 62
   7
 39
0.004
  6
CONTINUOUS
 10
4.35000
 20
0.22500
 30
 0
 40
0.06102
  0
LINE
  8
Contour
 62
   7
 39
0.004
  6
CONTINUOUS
 10
-0.03937
 20
0.00000
 30
 0
 11
0.03937
 21
0.00000
  0
LINE
  8
Contour
 62
   7
 39
0.004
  6
CONTINUOUS
 10
0.00000
 20
-0.03937
 30
 0
 11
0.00000
 21
0.03937
  0
LINE
  8
Contour
 62
   7
 39
0.004
  6
CONTINUOUS
 10
0.41063
 20
0.35000
 30
 0
 11
0.48937
 21
0.35000
  0
LINE
  8
Contour
 62
   7
 39
0.004
  6
CONTINUOUS
 10
0.45000
 20
0.31063
 30
 0
 11
0.45000
 21
0.38937
  0
LINE
  8
Contour
 62
   7
 39
0.004
  6
CONTINUOUS
 10
1.01063
 20
0.35000
 30
 0
 11
1.08937
 21
0.35000
  0
LINE
  8
Contour
 62
   7
 39
0.004
  6
CONTINUOUS
 10
1.05000
 20
0.31063
 30
 0
 11
1.05000
 21
0.38937
  0
LINE
  8
Contour
 62
   7
 39
0.004
  6
CONTINUOUS
 10
1.61063
 20
0.35000
 30
 0
 11
1.68937
 21
0.35000
  0
LINE
  8
Contour
 62
   7
 39
0.004
  6
CONTINUOUS
 10
1.65000
 20
0.31063
 30
 0
 11
1.65000
 21
0.38937
  0
LINE
  8
Contour
 62
   7
 39
0.004
  6
CONTINUOUS
 10
2.21063
 20
0.35000
 30
 0
 11
2.28937
 21
0.35000
  0
LINE
  8
Contour
 62
   7
 39
0.004
  6
CONTINUOUS
 10
2.25000
 20
0.31063
 30
 0
 11
2.25000
 21
0.38937
  0
LINE
  8
Contour
 62
   7
 39
0.004
  6
CONTINUOUS
 10
2.81063
 20
0.35000
 30
 0
 11
2.88937
 21
0.35000
  0
LINE
  8
Contour
 62
   7
 39
0.004
  6
CONTINUOUS
 10
2.85000
 20
0.31063
 30
 0
 11
2.85000
 21
0.38937
  0
LINE
  8
Contour
 62
   7
 39
0.004
  6
CONTINUOUS
 10
3.41063
 20
0.35000
 30
 0
 11
3.48937
 21
0.35000
  0
LINE
  8
Contour
 62
   7
 39
0.004
  6
CONTINUOUS
 10
3.45000
 20
0.31063
 30
 0
 11
3.45000
 21
0.38937
  0
LINE
  8
Contour
 62
   7
 39
0.004
  6
CONTINUOUS
 10
4.01063
 20
0.35000
 30
 0
 11
4.08937
 21
0.35000
  0
LINE
  8
Contour
 62
   7
 39
0.004
  6
CONTINUOUS
 10
4.05000
 20
0.31063
 30
 0
 11
4.05000
 21
0.38937
  0
LINE
  8
Contour
 62
   7
 39
0.004
  6
CONTINUOUS
 10
4.61063
 20
0.35000
 30
 0
 11
4.68937
 21
0.35000
  0
LINE
  8
Contour
 62
   7
 39
0.004
  6
CONTINUOUS
 10
4.65000
 20
0.31063
 30
 0
 11
4.65000
 21
0.38937
  0
LINE
  8
Contour
 62
   7
 39
0.004
  6
CONTINUOUS
 10
0.71063
 20
0.47500
 30
 0
 11
0.78937
 21
0.47500
  0
LINE
  8
Contour
 62
   7
 39
0.004
  6
CONTINUOUS
 10
0.75000
 20
0.43563
 30
 0
 11
0.75000
 21
0.51437
  0
LINE
  8
Contour
 62
   7
 39
0.004
  6
CONTINUOUS
 10
0.71063
 20
0.22500
 30
 0
 11
0.78937
 21
0.22500
  0
LINE
  8
Contour
 62
   7
 39
0.004
  6
CONTINUOUS
 10
0.75000
 20
0.18563
 30
 0
 11
0.75000
 21
0.26437
  0
LINE
  8
Contour
 62
   7
 39
0.004
  6
CONTINUOUS
 10
1.91063
 20
0.47500
 30
 0
 11
1.98937
 21
0.47500
  0
LINE
  8
Contour
 62
   7
 39
0.004
  6
CONTINUOUS
 10
1.95000
 20
0.43563
 30
 0
 11
1.95000
 21
0.51437
  0
LINE
  8
Contour
 62
   7
 39
0.004
  6
CONTINUOUS
 10
1.91063
 20
0.22500
 30
 0
 11
1.98937
 21
0.22500
  0
LINE
  8
Contour
 62
   7
 39
0.004
  6
CONTINUOUS
 10
1.95000
 20
0.18563
 30
 0
 11
1.95000
 21
0.26437
  0
LINE
  8
Contour
 62
   7
 39
0.004
  6
CONTINUOUS
 10
3.11063
 20
0.47500
 30
 0
 11
3.18937
 21
0.47500
  0
LINE
  8
Contour
 62
   7
 39
0.004
  6
CONTINUOUS
 10
3.15000
 20
0.43563
 30
 0
 11
3.15000
 21
0.51437
  0
LINE
  8
Contour
 62
   7
 39
0.004
  6
CONTINUOUS
 10
3.11063
 20
0.22500
 30
 0
 11
3.18937
 21
0.22500
  0
LINE
  8
Contour
 62
   7
 39
0.004
  6
CONTINUOUS
 10
3.15000
 20
0.18563
 30
 0
 11
3.15000
 21
0.26437
  0
LINE
  8
Contour
 62
   7
 39
0.004
  6
CONTINUOUS
 10
4.31063
 20
0.47500
 30
 0
 11
4.38937
 21
0.47500
  0
LINE
  8
Contour
 62
   7
 39
0.004
  6
CONTINUOUS
 10
4.35000
 20
0.43563
 30
 0
 11
4.35000
 21
0.51437
  0
LINE
  8
Contour
 62
   7
 39
0.004
  6
CONTINUOUS
 10
4.31063
 20
0.22500
 30
 0
 11
4.38937
 21
0.22500
  0
LINE
  8
Contour
 62
   7
 39
0.004
  6
CONTINUOUS
 10
4.35000
 20
0.18563
 30
 0
 11
4.35000
 21
0.26437
  0
ENDSEC
  0
EOF
